<svg width="610" height="140" viewBox="0 0 610 140" fill="none" xmlns="http://www.w3.org/2000/svg">
<g filter="url(#filter0_d_180_1228)">
<rect x="4" width="357" height="132" fill="black"/>
</g>
<path d="M55.6875 29.375C55.6875 29.375 68.1875 29.375 93.1875 29.375C95.4375 29.375 98.2188 30.4062 101.531 32.4688C104.844 34.5312 107.938 37 110.812 39.875C113.688 42.75 116.156 45.8438 118.219 49.1562C120.281 52.4688 121.312 55.25 121.312 57.5V66.875C121.312 69.125 120.281 71.9062 118.219 75.2188C116.156 78.5312 113.688 81.625 110.812 84.5C107.938 87.375 104.844 89.8438 101.531 91.9062C98.2188 93.9688 95.4375 95 93.1875 95H55.6875V29.375ZM74.4375 38.75V85.625H83.8125C88.5 85.625 92.7812 83.6875 96.6562 79.8125C100.594 75.875 102.562 71.5625 102.562 66.875V57.5C102.562 52.8125 100.594 48.5312 96.6562 44.6562C92.7812 40.7188 88.5 38.75 83.8125 38.75H74.4375ZM129.247 29.375C129.247 29.375 144.872 29.375 176.122 29.375C180.81 29.375 185.091 31.3438 188.966 35.2812C192.904 39.1562 194.872 43.4375 194.872 48.125C194.872 53.5 192.497 58.1875 187.747 62.1875C192.497 66.1875 194.872 70.875 194.872 76.25V95H176.122V76.25C176.122 76 176.091 75.6562 176.029 75.2188C176.029 74.7812 175.904 74.0312 175.654 72.9688C175.404 71.9062 175.06 70.9688 174.622 70.1562C174.185 69.3438 173.466 68.5938 172.466 67.9062C171.529 67.2188 170.404 66.875 169.091 66.875H147.997V95H129.247V29.375ZM147.997 38.75V57.5H169.091C171.154 57.5 172.779 56.7188 173.966 55.1562C175.154 53.5938 175.81 52.0312 175.935 50.4688L176.122 48.125C176.122 47.875 176.091 47.5312 176.029 47.0938C176.029 46.6562 175.904 45.9062 175.654 44.8438C175.404 43.7812 175.06 42.8438 174.622 42.0312C174.185 41.2188 173.466 40.4688 172.466 39.7812C171.529 39.0938 170.404 38.75 169.091 38.75H147.997ZM230.932 29.375C230.932 29.375 234.057 29.375 240.307 29.375C242.557 29.375 245.339 30.4062 248.651 32.4688C251.964 34.5312 255.057 37 257.932 39.875C260.807 42.75 263.276 45.8438 265.339 49.1562C267.401 52.4688 268.432 55.25 268.432 57.5V95H249.682V76.25H221.557V95H202.807V57.5C202.807 55.25 203.839 52.4688 205.901 49.1562C207.964 45.8438 210.432 42.75 213.307 39.875C216.182 37 219.276 34.5312 222.589 32.4688C225.901 30.4062 228.682 29.375 230.932 29.375ZM245.932 44.375C243.495 40.625 240.057 38.75 235.62 38.75C231.182 38.75 227.714 40.625 225.214 44.375C222.776 48.0625 221.557 52.4375 221.557 57.5V66.875H249.682V57.5C249.682 52.4375 248.432 48.0625 245.932 44.375Z" fill="white"/>
<path d="M61.5859 100.797C61.5859 100.797 63.1484 100.797 66.2734 100.797C66.5547 100.797 66.9023 100.926 67.3164 101.184C67.7305 101.441 68.1172 101.75 68.4766 102.109C68.8359 102.469 69.1445 102.855 69.4023 103.27C69.6602 103.684 69.7891 104.031 69.7891 104.312V105.484C69.7891 105.766 69.6602 106.113 69.4023 106.527C69.1445 106.941 68.8359 107.328 68.4766 107.688C68.1172 108.047 67.7305 108.355 67.3164 108.613C66.9023 108.871 66.5547 109 66.2734 109H61.5859V100.797ZM63.9297 101.969V107.828H65.1016C65.6875 107.828 66.2227 107.586 66.707 107.102C67.1992 106.609 67.4453 106.07 67.4453 105.484V104.312C67.4453 103.727 67.1992 103.191 66.707 102.707C66.2227 102.215 65.6875 101.969 65.1016 101.969H63.9297ZM74.2966 100.797C74.2966 100.797 74.6872 100.797 75.4684 100.797C75.7497 100.797 76.0973 100.926 76.5114 101.184C76.9255 101.441 77.3122 101.75 77.6716 102.109C78.0309 102.469 78.3395 102.855 78.5973 103.27C78.8552 103.684 78.9841 104.031 78.9841 104.312V109H76.6403V106.656H73.1247V109H70.7809V104.312C70.7809 104.031 70.9098 103.684 71.1677 103.27C71.4255 102.855 71.7341 102.469 72.0934 102.109C72.4528 101.75 72.8395 101.441 73.2536 101.184C73.6677 100.926 74.0153 100.797 74.2966 100.797ZM76.1716 102.672C75.8669 102.203 75.4372 101.969 74.8825 101.969C74.3278 101.969 73.8942 102.203 73.5817 102.672C73.277 103.133 73.1247 103.68 73.1247 104.312V105.484H76.6403V104.312C76.6403 103.68 76.4841 103.133 76.1716 102.672ZM80.5619 100.797H87.5931V101.969H85.2494V109H82.9056V101.969H80.5619V100.797ZM92.6866 100.797C92.6866 100.797 93.0772 100.797 93.8584 100.797C94.1397 100.797 94.4873 100.926 94.9014 101.184C95.3155 101.441 95.7022 101.75 96.0616 102.109C96.4209 102.469 96.7295 102.855 96.9873 103.27C97.2452 103.684 97.3741 104.031 97.3741 104.312V109H95.0303V106.656H91.5147V109H89.1709V104.312C89.1709 104.031 89.2998 103.684 89.5577 103.27C89.8155 102.855 90.1241 102.469 90.4834 102.109C90.8428 101.75 91.2295 101.441 91.6436 101.184C92.0577 100.926 92.4053 100.797 92.6866 100.797ZM94.5616 102.672C94.2569 102.203 93.8272 101.969 93.2725 101.969C92.7178 101.969 92.2842 102.203 91.9717 102.672C91.667 103.133 91.5147 103.68 91.5147 104.312V105.484H95.0303V104.312C95.0303 103.68 94.8741 103.133 94.5616 102.672ZM107.561 100.797C107.561 100.797 109.514 100.797 113.42 100.797C114.006 100.797 114.541 101.043 115.026 101.535C115.518 102.02 115.764 102.555 115.764 103.141C115.764 103.812 115.467 104.398 114.873 104.898C115.467 105.398 115.764 105.984 115.764 106.656V109H113.42V106.656C113.42 106.625 113.416 106.582 113.409 106.527C113.409 106.473 113.393 106.379 113.362 106.246C113.33 106.113 113.287 105.996 113.233 105.895C113.178 105.793 113.088 105.699 112.963 105.613C112.846 105.527 112.705 105.484 112.541 105.484H109.905V109H107.561V100.797ZM109.905 101.969V104.312H112.541C112.799 104.312 113.002 104.215 113.151 104.02C113.299 103.824 113.381 103.629 113.397 103.434L113.42 103.141C113.42 103.109 113.416 103.066 113.409 103.012C113.409 102.957 113.393 102.863 113.362 102.73C113.33 102.598 113.287 102.48 113.233 102.379C113.178 102.277 113.088 102.184 112.963 102.098C112.846 102.012 112.705 101.969 112.541 101.969H109.905ZM116.756 100.797H119.1H124.959V101.969H119.1V104.312H123.787V105.484H119.1V107.828H124.959V109H119.1H116.756V100.797ZM128.881 100.797C128.881 100.797 129.662 100.797 131.224 100.797C131.81 100.797 132.345 101.043 132.83 101.535C133.322 102.02 133.568 102.555 133.568 103.141H131.224C131.224 103.109 131.22 103.066 131.213 103.012C131.213 102.957 131.197 102.863 131.166 102.73C131.135 102.598 131.092 102.48 131.037 102.379C130.982 102.277 130.892 102.184 130.767 102.098C130.65 102.012 130.51 101.969 130.345 101.969H129.76C129.502 101.969 129.299 102.02 129.15 102.121C129.002 102.215 128.92 102.312 128.904 102.414L128.881 102.555C128.881 102.766 129.041 103.02 129.361 103.316C129.681 103.605 130.072 103.906 130.533 104.219C130.994 104.523 131.455 104.84 131.916 105.168C132.377 105.488 132.767 105.836 133.088 106.211C133.408 106.578 133.568 106.922 133.568 107.242V107.266C133.56 107.703 133.31 108.102 132.818 108.461C132.334 108.82 131.802 109 131.224 109H128.881C128.295 109 127.756 108.758 127.263 108.273C126.779 107.781 126.537 107.242 126.537 106.656H128.881C128.881 106.688 128.881 106.73 128.881 106.785C128.888 106.84 128.908 106.934 128.939 107.066C128.97 107.199 129.013 107.316 129.068 107.418C129.123 107.52 129.209 107.613 129.326 107.699C129.451 107.785 129.595 107.828 129.76 107.828H130.345C130.603 107.828 130.806 107.781 130.955 107.688C131.103 107.586 131.185 107.484 131.201 107.383L131.224 107.242C131.224 107.031 131.064 106.781 130.744 106.492C130.424 106.195 130.033 105.895 129.572 105.59C129.111 105.277 128.65 104.961 128.189 104.641C127.728 104.312 127.338 103.965 127.017 103.598C126.697 103.223 126.537 102.875 126.537 102.555V102.531C126.545 102.094 126.791 101.695 127.275 101.336C127.767 100.977 128.302 100.797 128.881 100.797ZM135.146 100.797H137.49H143.349V101.969H137.49V104.312H142.177V105.484H137.49V107.828H143.349V109H137.49H135.146V100.797ZM147.857 100.797C147.857 100.797 148.247 100.797 149.028 100.797C149.31 100.797 149.657 100.926 150.071 101.184C150.485 101.441 150.872 101.75 151.232 102.109C151.591 102.469 151.9 102.855 152.157 103.27C152.415 103.684 152.544 104.031 152.544 104.312V109H150.2V106.656H146.685V109H144.341V104.312C144.341 104.031 144.47 103.684 144.728 103.27C144.985 102.855 145.294 102.469 145.653 102.109C146.013 101.75 146.4 101.441 146.814 101.184C147.228 100.926 147.575 100.797 147.857 100.797ZM149.732 102.672C149.427 102.203 148.997 101.969 148.442 101.969C147.888 101.969 147.454 102.203 147.142 102.672C146.837 103.133 146.685 103.68 146.685 104.312V105.484H150.2V104.312C150.2 103.68 150.044 103.133 149.732 102.672ZM153.536 100.797C153.536 100.797 155.489 100.797 159.395 100.797C159.981 100.797 160.516 101.043 161.001 101.535C161.493 102.02 161.739 102.555 161.739 103.141C161.739 103.812 161.442 104.398 160.848 104.898C161.442 105.398 161.739 105.984 161.739 106.656V109H159.395V106.656C159.395 106.625 159.391 106.582 159.384 106.527C159.384 106.473 159.368 106.379 159.337 106.246C159.305 106.113 159.262 105.996 159.208 105.895C159.153 105.793 159.063 105.699 158.938 105.613C158.821 105.527 158.68 105.484 158.516 105.484H155.88V109H153.536V100.797ZM155.88 101.969V104.312H158.516C158.774 104.312 158.977 104.215 159.126 104.02C159.274 103.824 159.356 103.629 159.372 103.434L159.395 103.141C159.395 103.109 159.391 103.066 159.384 103.012C159.384 102.957 159.368 102.863 159.337 102.73C159.305 102.598 159.262 102.48 159.208 102.379C159.153 102.277 159.063 102.184 158.938 102.098C158.821 102.012 158.68 101.969 158.516 101.969H155.88ZM165.075 100.797C165.075 100.797 166.247 100.797 168.59 100.797C169.176 100.797 169.711 101.043 170.196 101.535C170.688 102.02 170.934 102.555 170.934 103.141V104.312H168.59V103.141C168.59 103.109 168.586 103.066 168.579 103.012C168.579 102.957 168.563 102.863 168.532 102.73C168.5 102.598 168.457 102.48 168.403 102.379C168.348 102.277 168.258 102.184 168.133 102.098C168.016 102.012 167.875 101.969 167.711 101.969H165.954C165.696 101.969 165.493 102.066 165.344 102.262C165.196 102.457 165.114 102.652 165.098 102.848L165.075 103.141V106.656C165.075 106.688 165.075 106.73 165.075 106.785C165.082 106.84 165.102 106.934 165.133 107.066C165.165 107.199 165.207 107.316 165.262 107.418C165.317 107.52 165.403 107.613 165.52 107.699C165.645 107.785 165.79 107.828 165.954 107.828H167.711C167.969 107.828 168.172 107.73 168.321 107.535C168.469 107.34 168.551 107.145 168.567 106.949L168.59 106.656H170.934C170.934 107.242 170.688 107.781 170.196 108.273C169.711 108.758 169.176 109 168.59 109H165.075C164.489 109 163.95 108.758 163.457 108.273C162.973 107.781 162.731 107.242 162.731 106.656V103.141C162.731 102.555 162.973 102.02 163.457 101.535C163.95 101.043 164.489 100.797 165.075 100.797ZM171.926 100.797H174.27V104.312H177.785V100.797H180.129V109H177.785V105.484H174.27V109H171.926V100.797ZM193.832 100.797C193.832 100.797 194.222 100.797 195.003 100.797C195.285 100.797 195.632 100.926 196.046 101.184C196.46 101.441 196.847 101.75 197.207 102.109C197.566 102.469 197.875 102.855 198.132 103.27C198.39 103.684 198.519 104.031 198.519 104.312V109H196.175V106.656H192.66V109H190.316V104.312C190.316 104.031 190.445 103.684 190.703 103.27C190.96 102.855 191.269 102.469 191.628 102.109C191.988 101.75 192.375 101.441 192.789 101.184C193.203 100.926 193.55 100.797 193.832 100.797ZM195.707 102.672C195.402 102.203 194.972 101.969 194.417 101.969C193.863 101.969 193.429 102.203 193.117 102.672C192.812 103.133 192.66 103.68 192.66 104.312V105.484H196.175V104.312C196.175 103.68 196.019 103.133 195.707 102.672ZM199.511 100.797H201.855L205.37 104.312V100.797H207.714V109H205.37V106.656L201.855 103.141V109H199.511V100.797ZM212.222 100.797C212.222 100.797 212.612 100.797 213.393 100.797C213.675 100.797 214.022 100.926 214.436 101.184C214.85 101.441 215.237 101.75 215.597 102.109C215.956 102.469 216.265 102.855 216.522 103.27C216.78 103.684 216.909 104.031 216.909 104.312V109H214.565V106.656H211.05V109H208.706V104.312C208.706 104.031 208.835 103.684 209.093 103.27C209.35 102.855 209.659 102.469 210.018 102.109C210.378 101.75 210.765 101.441 211.179 101.184C211.593 100.926 211.94 100.797 212.222 100.797ZM214.097 102.672C213.792 102.203 213.362 101.969 212.807 101.969C212.253 101.969 211.819 102.203 211.507 102.672C211.202 103.133 211.05 103.68 211.05 104.312V105.484H214.565V104.312C214.565 103.68 214.409 103.133 214.097 102.672ZM217.901 100.797H220.245V107.828H226.104V109H220.245H217.901V100.797ZM227.096 100.797H229.44V101.969L231.197 103.727L232.955 101.969V100.797H235.299V101.969L232.369 104.898V109H230.026V104.898L227.096 101.969V100.797ZM239.221 100.797C239.221 100.797 240.002 100.797 241.564 100.797C242.15 100.797 242.685 101.043 243.17 101.535C243.662 102.02 243.908 102.555 243.908 103.141H241.564C241.564 103.109 241.56 103.066 241.553 103.012C241.553 102.957 241.537 102.863 241.506 102.73C241.475 102.598 241.432 102.48 241.377 102.379C241.322 102.277 241.232 102.184 241.107 102.098C240.99 102.012 240.85 101.969 240.685 101.969H240.1C239.842 101.969 239.639 102.02 239.49 102.121C239.342 102.215 239.26 102.312 239.244 102.414L239.221 102.555C239.221 102.766 239.381 103.02 239.701 103.316C240.021 103.605 240.412 103.906 240.873 104.219C241.334 104.523 241.795 104.84 242.256 105.168C242.717 105.488 243.107 105.836 243.428 106.211C243.748 106.578 243.908 106.922 243.908 107.242V107.266C243.9 107.703 243.65 108.102 243.158 108.461C242.674 108.82 242.143 109 241.564 109H239.221C238.635 109 238.096 108.758 237.603 108.273C237.119 107.781 236.877 107.242 236.877 106.656H239.221C239.221 106.688 239.221 106.73 239.221 106.785C239.228 106.84 239.248 106.934 239.279 107.066C239.31 107.199 239.353 107.316 239.408 107.418C239.463 107.52 239.549 107.613 239.666 107.699C239.791 107.785 239.935 107.828 240.1 107.828H240.685C240.943 107.828 241.146 107.781 241.295 107.688C241.443 107.586 241.525 107.484 241.541 107.383L241.564 107.242C241.564 107.031 241.404 106.781 241.084 106.492C240.764 106.195 240.373 105.895 239.912 105.59C239.451 105.277 238.99 104.961 238.529 104.641C238.068 104.312 237.678 103.965 237.357 103.598C237.037 103.223 236.877 102.875 236.877 102.555V102.531C236.885 102.094 237.131 101.695 237.615 101.336C238.107 100.977 238.643 100.797 239.221 100.797ZM247.244 100.797H251.931V101.969H250.759V107.828H251.931V109H247.244V107.828H248.416V101.969H247.244V100.797ZM257.611 100.797C257.611 100.797 258.392 100.797 259.954 100.797C260.54 100.797 261.075 101.043 261.56 101.535C262.052 102.02 262.298 102.555 262.298 103.141H259.954C259.954 103.109 259.95 103.066 259.943 103.012C259.943 102.957 259.927 102.863 259.896 102.73C259.865 102.598 259.822 102.48 259.767 102.379C259.712 102.277 259.622 102.184 259.497 102.098C259.38 102.012 259.24 101.969 259.075 101.969H258.49C258.232 101.969 258.029 102.02 257.88 102.121C257.732 102.215 257.65 102.312 257.634 102.414L257.611 102.555C257.611 102.766 257.771 103.02 258.091 103.316C258.411 103.605 258.802 103.906 259.263 104.219C259.724 104.523 260.185 104.84 260.646 105.168C261.107 105.488 261.497 105.836 261.818 106.211C262.138 106.578 262.298 106.922 262.298 107.242V107.266C262.29 107.703 262.04 108.102 261.548 108.461C261.064 108.82 260.533 109 259.954 109H257.611C257.025 109 256.486 108.758 255.993 108.273C255.509 107.781 255.267 107.242 255.267 106.656H257.611C257.611 106.688 257.611 106.73 257.611 106.785C257.618 106.84 257.638 106.934 257.669 107.066C257.7 107.199 257.743 107.316 257.798 107.418C257.853 107.52 257.939 107.613 258.056 107.699C258.181 107.785 258.325 107.828 258.49 107.828H259.075C259.333 107.828 259.536 107.781 259.685 107.688C259.833 107.586 259.915 107.484 259.931 107.383L259.954 107.242C259.954 107.031 259.794 106.781 259.474 106.492C259.154 106.195 258.763 105.895 258.302 105.59C257.841 105.277 257.38 104.961 256.919 104.641C256.458 104.312 256.068 103.965 255.747 103.598C255.427 103.223 255.267 102.875 255.267 102.555V102.531C255.275 102.094 255.521 101.695 256.005 101.336C256.497 100.977 257.033 100.797 257.611 100.797Z" fill="white"/>
<mask id="mask0_180_1228" style="mask-type:alpha" maskUnits="userSpaceOnUse" x="299" y="32" width="52" height="52">
<circle cx="325" cy="58" r="26" fill="white"/>
</mask>
<g mask="url(#mask0_180_1228)">
<path d="M283.395 38.7461H286.324C287.057 38.7461 287.726 39.0537 288.331 39.6689C288.946 40.2744 289.254 40.9434 289.254 41.6758V46.0703C289.254 46.8027 288.946 47.4766 288.331 48.0918C287.726 48.6973 287.057 49 286.324 49H283.395C282.662 49 281.988 48.6973 281.373 48.0918C280.768 47.4766 280.465 46.8027 280.465 46.0703V41.6758C280.465 40.9434 280.768 40.2744 281.373 39.6689C281.988 39.0537 282.662 38.7461 283.395 38.7461ZM284.493 40.2109C284.171 40.2109 283.917 40.333 283.731 40.5771C283.546 40.8213 283.443 41.0654 283.424 41.3096L283.395 41.6758V46.0703C283.395 46.1094 283.395 46.1631 283.395 46.2314C283.404 46.2998 283.429 46.417 283.468 46.583C283.507 46.749 283.561 46.8955 283.629 47.0225C283.697 47.1494 283.805 47.2666 283.951 47.374C284.107 47.4814 284.288 47.5352 284.493 47.5352H285.226C285.548 47.5352 285.802 47.4131 285.987 47.1689C286.173 46.9248 286.275 46.6807 286.295 46.4365L286.324 46.0703V41.6758C286.324 41.6367 286.319 41.583 286.31 41.5146C286.31 41.4463 286.29 41.3291 286.251 41.1631C286.212 40.9971 286.158 40.8506 286.09 40.7236C286.021 40.5967 285.909 40.4795 285.753 40.3721C285.606 40.2646 285.431 40.2109 285.226 40.2109H284.493ZM295.621 38.7461H297.818V47.5352H300.748V49H291.959V47.5352H294.888V41.6758H292.691L295.621 38.7461ZM306.382 38.7461H309.312C310.044 38.7461 310.713 39.0537 311.319 39.6689C311.934 40.2744 312.241 40.9434 312.241 41.6758V46.0703C312.241 46.8027 311.934 47.4766 311.319 48.0918C310.713 48.6973 310.044 49 309.312 49H306.382C305.65 49 304.976 48.6973 304.361 48.0918C303.755 47.4766 303.452 46.8027 303.452 46.0703V41.6758C303.452 40.9434 303.755 40.2744 304.361 39.6689C304.976 39.0537 305.65 38.7461 306.382 38.7461ZM307.481 40.2109C307.158 40.2109 306.904 40.333 306.719 40.5771C306.533 40.8213 306.431 41.0654 306.411 41.3096L306.382 41.6758V46.0703C306.382 46.1094 306.382 46.1631 306.382 46.2314C306.392 46.2998 306.416 46.417 306.455 46.583C306.494 46.749 306.548 46.8955 306.616 47.0225C306.685 47.1494 306.792 47.2666 306.939 47.374C307.095 47.4814 307.276 47.5352 307.481 47.5352H308.213C308.535 47.5352 308.789 47.4131 308.975 47.1689C309.16 46.9248 309.263 46.6807 309.282 46.4365L309.312 46.0703V41.6758C309.312 41.6367 309.307 41.583 309.297 41.5146C309.297 41.4463 309.278 41.3291 309.238 41.1631C309.199 40.9971 309.146 40.8506 309.077 40.7236C309.009 40.5967 308.897 40.4795 308.74 40.3721C308.594 40.2646 308.418 40.2109 308.213 40.2109H307.481ZM317.876 38.7461H320.805C321.538 38.7461 322.207 39.0537 322.812 39.6689C323.428 40.2744 323.735 40.9434 323.735 41.6758V46.0703C323.735 46.8027 323.428 47.4766 322.812 48.0918C322.207 48.6973 321.538 49 320.805 49H317.876C317.143 49 316.47 48.6973 315.854 48.0918C315.249 47.4766 314.946 46.8027 314.946 46.0703V41.6758C314.946 40.9434 315.249 40.2744 315.854 39.6689C316.47 39.0537 317.143 38.7461 317.876 38.7461ZM318.974 40.2109C318.652 40.2109 318.398 40.333 318.213 40.5771C318.027 40.8213 317.925 41.0654 317.905 41.3096L317.876 41.6758V46.0703C317.876 46.1094 317.876 46.1631 317.876 46.2314C317.886 46.2998 317.91 46.417 317.949 46.583C317.988 46.749 318.042 46.8955 318.11 47.0225C318.179 47.1494 318.286 47.2666 318.432 47.374C318.589 47.4814 318.769 47.5352 318.974 47.5352H319.707C320.029 47.5352 320.283 47.4131 320.469 47.1689C320.654 46.9248 320.757 46.6807 320.776 46.4365L320.805 46.0703V41.6758C320.805 41.6367 320.801 41.583 320.791 41.5146C320.791 41.4463 320.771 41.3291 320.732 41.1631C320.693 40.9971 320.639 40.8506 320.571 40.7236C320.503 40.5967 320.39 40.4795 320.234 40.3721C320.088 40.2646 319.912 40.2109 319.707 40.2109H318.974ZM329.37 38.7461H332.299C333.032 38.7461 333.701 39.0537 334.306 39.6689C334.921 40.2744 335.229 40.9434 335.229 41.6758V46.0703C335.229 46.8027 334.921 47.4766 334.306 48.0918C333.701 48.6973 333.032 49 332.299 49H329.37C328.637 49 327.963 48.6973 327.348 48.0918C326.743 47.4766 326.44 46.8027 326.44 46.0703V41.6758C326.44 40.9434 326.743 40.2744 327.348 39.6689C327.963 39.0537 328.637 38.7461 329.37 38.7461ZM330.468 40.2109C330.146 40.2109 329.892 40.333 329.706 40.5771C329.521 40.8213 329.418 41.0654 329.399 41.3096L329.37 41.6758V46.0703C329.37 46.1094 329.37 46.1631 329.37 46.2314C329.379 46.2998 329.404 46.417 329.443 46.583C329.482 46.749 329.536 46.8955 329.604 47.0225C329.672 47.1494 329.78 47.2666 329.926 47.374C330.082 47.4814 330.263 47.5352 330.468 47.5352H331.201C331.523 47.5352 331.777 47.4131 331.962 47.1689C332.148 46.9248 332.25 46.6807 332.27 46.4365L332.299 46.0703V41.6758C332.299 41.6367 332.294 41.583 332.285 41.5146C332.285 41.4463 332.265 41.3291 332.226 41.1631C332.187 40.9971 332.133 40.8506 332.065 40.7236C331.996 40.5967 331.884 40.4795 331.728 40.3721C331.581 40.2646 331.406 40.2109 331.201 40.2109H330.468ZM341.596 38.7461H343.793V47.5352H346.723V49H337.934V47.5352H340.863V41.6758H338.666L341.596 38.7461ZM352.357 38.7461H355.287C356.019 38.7461 356.688 39.0537 357.294 39.6689C357.909 40.2744 358.216 40.9434 358.216 41.6758V46.0703C358.216 46.8027 357.909 47.4766 357.294 48.0918C356.688 48.6973 356.019 49 355.287 49H352.357C351.625 49 350.951 48.6973 350.336 48.0918C349.73 47.4766 349.427 46.8027 349.427 46.0703V41.6758C349.427 40.9434 349.73 40.2744 350.336 39.6689C350.951 39.0537 351.625 38.7461 352.357 38.7461ZM353.456 40.2109C353.133 40.2109 352.879 40.333 352.694 40.5771C352.508 40.8213 352.406 41.0654 352.386 41.3096L352.357 41.6758V46.0703C352.357 46.1094 352.357 46.1631 352.357 46.2314C352.367 46.2998 352.391 46.417 352.43 46.583C352.469 46.749 352.523 46.8955 352.591 47.0225C352.66 47.1494 352.767 47.2666 352.914 47.374C353.07 47.4814 353.251 47.5352 353.456 47.5352H354.188C354.51 47.5352 354.764 47.4131 354.95 47.1689C355.135 46.9248 355.238 46.6807 355.257 46.4365L355.287 46.0703V41.6758C355.287 41.6367 355.282 41.583 355.272 41.5146C355.272 41.4463 355.253 41.3291 355.213 41.1631C355.174 40.9971 355.121 40.8506 355.052 40.7236C354.984 40.5967 354.872 40.4795 354.715 40.3721C354.569 40.2646 354.393 40.2109 354.188 40.2109H353.456ZM363.851 38.7461H366.78C367.513 38.7461 368.182 39.0537 368.787 39.6689C369.403 40.2744 369.71 40.9434 369.71 41.6758V46.0703C369.71 46.8027 369.403 47.4766 368.787 48.0918C368.182 48.6973 367.513 49 366.78 49H363.851C363.118 49 362.445 48.6973 361.829 48.0918C361.224 47.4766 360.921 46.8027 360.921 46.0703V41.6758C360.921 40.9434 361.224 40.2744 361.829 39.6689C362.445 39.0537 363.118 38.7461 363.851 38.7461ZM364.949 40.2109C364.627 40.2109 364.373 40.333 364.188 40.5771C364.002 40.8213 363.9 41.0654 363.88 41.3096L363.851 41.6758V46.0703C363.851 46.1094 363.851 46.1631 363.851 46.2314C363.861 46.2998 363.885 46.417 363.924 46.583C363.963 46.749 364.017 46.8955 364.085 47.0225C364.154 47.1494 364.261 47.2666 364.407 47.374C364.564 47.4814 364.744 47.5352 364.949 47.5352H365.682C366.004 47.5352 366.258 47.4131 366.444 47.1689C366.629 46.9248 366.732 46.6807 366.751 46.4365L366.78 46.0703V41.6758C366.78 41.6367 366.776 41.583 366.766 41.5146C366.766 41.4463 366.746 41.3291 366.707 41.1631C366.668 40.9971 366.614 40.8506 366.546 40.7236C366.478 40.5967 366.365 40.4795 366.209 40.3721C366.063 40.2646 365.887 40.2109 365.682 40.2109H364.949Z" fill="white"/>
<path d="M283.395 52.7461H286.324C287.057 52.7461 287.726 53.0537 288.331 53.6689C288.946 54.2744 289.254 54.9434 289.254 55.6758V60.0703C289.254 60.8027 288.946 61.4766 288.331 62.0918C287.726 62.6973 287.057 63 286.324 63H283.395C282.662 63 281.988 62.6973 281.373 62.0918C280.768 61.4766 280.465 60.8027 280.465 60.0703V55.6758C280.465 54.9434 280.768 54.2744 281.373 53.6689C281.988 53.0537 282.662 52.7461 283.395 52.7461ZM284.493 54.2109C284.171 54.2109 283.917 54.333 283.731 54.5771C283.546 54.8213 283.443 55.0654 283.424 55.3096L283.395 55.6758V60.0703C283.395 60.1094 283.395 60.1631 283.395 60.2314C283.404 60.2998 283.429 60.417 283.468 60.583C283.507 60.749 283.561 60.8955 283.629 61.0225C283.697 61.1494 283.805 61.2666 283.951 61.374C284.107 61.4814 284.288 61.5352 284.493 61.5352H285.226C285.548 61.5352 285.802 61.4131 285.987 61.1689C286.173 60.9248 286.275 60.6807 286.295 60.4365L286.324 60.0703V55.6758C286.324 55.6367 286.319 55.583 286.31 55.5146C286.31 55.4463 286.29 55.3291 286.251 55.1631C286.212 54.9971 286.158 54.8506 286.09 54.7236C286.021 54.5967 285.909 54.4795 285.753 54.3721C285.606 54.2646 285.431 54.2109 285.226 54.2109H284.493ZM295.621 52.7461H297.818V61.5352H300.748V63H291.959V61.5352H294.888V55.6758H292.691L295.621 52.7461ZM306.382 52.7461H309.312C310.044 52.7461 310.713 53.0537 311.319 53.6689C311.934 54.2744 312.241 54.9434 312.241 55.6758V60.0703C312.241 60.8027 311.934 61.4766 311.319 62.0918C310.713 62.6973 310.044 63 309.312 63H306.382C305.65 63 304.976 62.6973 304.361 62.0918C303.755 61.4766 303.452 60.8027 303.452 60.0703V55.6758C303.452 54.9434 303.755 54.2744 304.361 53.6689C304.976 53.0537 305.65 52.7461 306.382 52.7461ZM307.481 54.2109C307.158 54.2109 306.904 54.333 306.719 54.5771C306.533 54.8213 306.431 55.0654 306.411 55.3096L306.382 55.6758V60.0703C306.382 60.1094 306.382 60.1631 306.382 60.2314C306.392 60.2998 306.416 60.417 306.455 60.583C306.494 60.749 306.548 60.8955 306.616 61.0225C306.685 61.1494 306.792 61.2666 306.939 61.374C307.095 61.4814 307.276 61.5352 307.481 61.5352H308.213C308.535 61.5352 308.789 61.4131 308.975 61.1689C309.16 60.9248 309.263 60.6807 309.282 60.4365L309.312 60.0703V55.6758C309.312 55.6367 309.307 55.583 309.297 55.5146C309.297 55.4463 309.278 55.3291 309.238 55.1631C309.199 54.9971 309.146 54.8506 309.077 54.7236C309.009 54.5967 308.897 54.4795 308.74 54.3721C308.594 54.2646 308.418 54.2109 308.213 54.2109H307.481ZM318.608 52.7461H320.805V61.5352H323.735V63H314.946V61.5352H317.876V55.6758H315.679L318.608 52.7461ZM329.37 52.7461H332.299C333.032 52.7461 333.701 53.0537 334.306 53.6689C334.921 54.2744 335.229 54.9434 335.229 55.6758V60.0703C335.229 60.8027 334.921 61.4766 334.306 62.0918C333.701 62.6973 333.032 63 332.299 63H329.37C328.637 63 327.963 62.6973 327.348 62.0918C326.743 61.4766 326.44 60.8027 326.44 60.0703V55.6758C326.44 54.9434 326.743 54.2744 327.348 53.6689C327.963 53.0537 328.637 52.7461 329.37 52.7461ZM330.468 54.2109C330.146 54.2109 329.892 54.333 329.706 54.5771C329.521 54.8213 329.418 55.0654 329.399 55.3096L329.37 55.6758V60.0703C329.37 60.1094 329.37 60.1631 329.37 60.2314C329.379 60.2998 329.404 60.417 329.443 60.583C329.482 60.749 329.536 60.8955 329.604 61.0225C329.672 61.1494 329.78 61.2666 329.926 61.374C330.082 61.4814 330.263 61.5352 330.468 61.5352H331.201C331.523 61.5352 331.777 61.4131 331.962 61.1689C332.148 60.9248 332.25 60.6807 332.27 60.4365L332.299 60.0703V55.6758C332.299 55.6367 332.294 55.583 332.285 55.5146C332.285 55.4463 332.265 55.3291 332.226 55.1631C332.187 54.9971 332.133 54.8506 332.065 54.7236C331.996 54.5967 331.884 54.4795 331.728 54.3721C331.581 54.2646 331.406 54.2109 331.201 54.2109H330.468ZM340.863 52.7461H343.793C344.525 52.7461 345.194 53.0537 345.8 53.6689C346.415 54.2744 346.723 54.9434 346.723 55.6758V60.0703C346.723 60.8027 346.415 61.4766 345.8 62.0918C345.194 62.6973 344.525 63 343.793 63H340.863C340.131 63 339.457 62.6973 338.842 62.0918C338.236 61.4766 337.934 60.8027 337.934 60.0703V55.6758C337.934 54.9434 338.236 54.2744 338.842 53.6689C339.457 53.0537 340.131 52.7461 340.863 52.7461ZM341.962 54.2109C341.64 54.2109 341.386 54.333 341.2 54.5771C341.015 54.8213 340.912 55.0654 340.893 55.3096L340.863 55.6758V60.0703C340.863 60.1094 340.863 60.1631 340.863 60.2314C340.873 60.2998 340.897 60.417 340.937 60.583C340.976 60.749 341.029 60.8955 341.098 61.0225C341.166 61.1494 341.273 61.2666 341.42 61.374C341.576 61.4814 341.757 61.5352 341.962 61.5352H342.694C343.017 61.5352 343.271 61.4131 343.456 61.1689C343.642 60.9248 343.744 60.6807 343.764 60.4365L343.793 60.0703V55.6758C343.793 55.6367 343.788 55.583 343.778 55.5146C343.778 55.4463 343.759 55.3291 343.72 55.1631C343.681 54.9971 343.627 54.8506 343.559 54.7236C343.49 54.5967 343.378 54.4795 343.222 54.3721C343.075 54.2646 342.899 54.2109 342.694 54.2109H341.962ZM353.089 52.7461H355.287V61.5352H358.216V63H349.427V61.5352H352.357V55.6758H350.16L353.089 52.7461ZM363.851 52.7461H366.78C367.513 52.7461 368.182 53.0537 368.787 53.6689C369.403 54.2744 369.71 54.9434 369.71 55.6758V60.0703C369.71 60.8027 369.403 61.4766 368.787 62.0918C368.182 62.6973 367.513 63 366.78 63H363.851C363.118 63 362.445 62.6973 361.829 62.0918C361.224 61.4766 360.921 60.8027 360.921 60.0703V55.6758C360.921 54.9434 361.224 54.2744 361.829 53.6689C362.445 53.0537 363.118 52.7461 363.851 52.7461ZM364.949 54.2109C364.627 54.2109 364.373 54.333 364.188 54.5771C364.002 54.8213 363.9 55.0654 363.88 55.3096L363.851 55.6758V60.0703C363.851 60.1094 363.851 60.1631 363.851 60.2314C363.861 60.2998 363.885 60.417 363.924 60.583C363.963 60.749 364.017 60.8955 364.085 61.0225C364.154 61.1494 364.261 61.2666 364.407 61.374C364.564 61.4814 364.744 61.5352 364.949 61.5352H365.682C366.004 61.5352 366.258 61.4131 366.444 61.1689C366.629 60.9248 366.732 60.6807 366.751 60.4365L366.78 60.0703V55.6758C366.78 55.6367 366.776 55.583 366.766 55.5146C366.766 55.4463 366.746 55.3291 366.707 55.1631C366.668 54.9971 366.614 54.8506 366.546 54.7236C366.478 54.5967 366.365 54.4795 366.209 54.3721C366.063 54.2646 365.887 54.2109 365.682 54.2109H364.949Z" fill="white"/>
<path d="M283.395 66.7461H286.324C287.057 66.7461 287.726 67.0537 288.331 67.6689C288.946 68.2744 289.254 68.9434 289.254 69.6758V74.0703C289.254 74.8027 288.946 75.4766 288.331 76.0918C287.726 76.6973 287.057 77 286.324 77H283.395C282.662 77 281.988 76.6973 281.373 76.0918C280.768 75.4766 280.465 74.8027 280.465 74.0703V69.6758C280.465 68.9434 280.768 68.2744 281.373 67.6689C281.988 67.0537 282.662 66.7461 283.395 66.7461ZM284.493 68.2109C284.171 68.2109 283.917 68.333 283.731 68.5771C283.546 68.8213 283.443 69.0654 283.424 69.3096L283.395 69.6758V74.0703C283.395 74.1094 283.395 74.1631 283.395 74.2314C283.404 74.2998 283.429 74.417 283.468 74.583C283.507 74.749 283.561 74.8955 283.629 75.0225C283.697 75.1494 283.805 75.2666 283.951 75.374C284.107 75.4814 284.288 75.5352 284.493 75.5352H285.226C285.548 75.5352 285.802 75.4131 285.987 75.1689C286.173 74.9248 286.275 74.6807 286.295 74.4365L286.324 74.0703V69.6758C286.324 69.6367 286.319 69.583 286.31 69.5146C286.31 69.4463 286.29 69.3291 286.251 69.1631C286.212 68.9971 286.158 68.8506 286.09 68.7236C286.021 68.5967 285.909 68.4795 285.753 68.3721C285.606 68.2646 285.431 68.2109 285.226 68.2109H284.493ZM295.621 66.7461H297.818V75.5352H300.748V77H291.959V75.5352H294.888V69.6758H292.691L295.621 66.7461ZM306.382 66.7461H309.312C310.044 66.7461 310.713 67.0537 311.319 67.6689C311.934 68.2744 312.241 68.9434 312.241 69.6758V74.0703C312.241 74.8027 311.934 75.4766 311.319 76.0918C310.713 76.6973 310.044 77 309.312 77H306.382C305.65 77 304.976 76.6973 304.361 76.0918C303.755 75.4766 303.452 74.8027 303.452 74.0703V69.6758C303.452 68.9434 303.755 68.2744 304.361 67.6689C304.976 67.0537 305.65 66.7461 306.382 66.7461ZM307.481 68.2109C307.158 68.2109 306.904 68.333 306.719 68.5771C306.533 68.8213 306.431 69.0654 306.411 69.3096L306.382 69.6758V74.0703C306.382 74.1094 306.382 74.1631 306.382 74.2314C306.392 74.2998 306.416 74.417 306.455 74.583C306.494 74.749 306.548 74.8955 306.616 75.0225C306.685 75.1494 306.792 75.2666 306.939 75.374C307.095 75.4814 307.276 75.5352 307.481 75.5352H308.213C308.535 75.5352 308.789 75.4131 308.975 75.1689C309.16 74.9248 309.263 74.6807 309.282 74.4365L309.312 74.0703V69.6758C309.312 69.6367 309.307 69.583 309.297 69.5146C309.297 69.4463 309.278 69.3291 309.238 69.1631C309.199 68.9971 309.146 68.8506 309.077 68.7236C309.009 68.5967 308.897 68.4795 308.74 68.3721C308.594 68.2646 308.418 68.2109 308.213 68.2109H307.481ZM317.876 66.7461H320.805C321.538 66.7461 322.207 67.0537 322.812 67.6689C323.428 68.2744 323.735 68.9434 323.735 69.6758V74.0703C323.735 74.8027 323.428 75.4766 322.812 76.0918C322.207 76.6973 321.538 77 320.805 77H317.876C317.143 77 316.47 76.6973 315.854 76.0918C315.249 75.4766 314.946 74.8027 314.946 74.0703V69.6758C314.946 68.9434 315.249 68.2744 315.854 67.6689C316.47 67.0537 317.143 66.7461 317.876 66.7461ZM318.974 68.2109C318.652 68.2109 318.398 68.333 318.213 68.5771C318.027 68.8213 317.925 69.0654 317.905 69.3096L317.876 69.6758V74.0703C317.876 74.1094 317.876 74.1631 317.876 74.2314C317.886 74.2998 317.91 74.417 317.949 74.583C317.988 74.749 318.042 74.8955 318.11 75.0225C318.179 75.1494 318.286 75.2666 318.432 75.374C318.589 75.4814 318.769 75.5352 318.974 75.5352H319.707C320.029 75.5352 320.283 75.4131 320.469 75.1689C320.654 74.9248 320.757 74.6807 320.776 74.4365L320.805 74.0703V69.6758C320.805 69.6367 320.801 69.583 320.791 69.5146C320.791 69.4463 320.771 69.3291 320.732 69.1631C320.693 68.9971 320.639 68.8506 320.571 68.7236C320.503 68.5967 320.39 68.4795 320.234 68.3721C320.088 68.2646 319.912 68.2109 319.707 68.2109H318.974ZM329.37 66.7461H332.299C333.032 66.7461 333.701 67.0537 334.306 67.6689C334.921 68.2744 335.229 68.9434 335.229 69.6758V74.0703C335.229 74.8027 334.921 75.4766 334.306 76.0918C333.701 76.6973 333.032 77 332.299 77H329.37C328.637 77 327.963 76.6973 327.348 76.0918C326.743 75.4766 326.44 74.8027 326.44 74.0703V69.6758C326.44 68.9434 326.743 68.2744 327.348 67.6689C327.963 67.0537 328.637 66.7461 329.37 66.7461ZM330.468 68.2109C330.146 68.2109 329.892 68.333 329.706 68.5771C329.521 68.8213 329.418 69.0654 329.399 69.3096L329.37 69.6758V74.0703C329.37 74.1094 329.37 74.1631 329.37 74.2314C329.379 74.2998 329.404 74.417 329.443 74.583C329.482 74.749 329.536 74.8955 329.604 75.0225C329.672 75.1494 329.78 75.2666 329.926 75.374C330.082 75.4814 330.263 75.5352 330.468 75.5352H331.201C331.523 75.5352 331.777 75.4131 331.962 75.1689C332.148 74.9248 332.25 74.6807 332.27 74.4365L332.299 74.0703V69.6758C332.299 69.6367 332.294 69.583 332.285 69.5146C332.285 69.4463 332.265 69.3291 332.226 69.1631C332.187 68.9971 332.133 68.8506 332.065 68.7236C331.996 68.5967 331.884 68.4795 331.728 68.3721C331.581 68.2646 331.406 68.2109 331.201 68.2109H330.468ZM340.863 66.7461H343.793C344.525 66.7461 345.194 67.0537 345.8 67.6689C346.415 68.2744 346.723 68.9434 346.723 69.6758V74.0703C346.723 74.8027 346.415 75.4766 345.8 76.0918C345.194 76.6973 344.525 77 343.793 77H340.863C340.131 77 339.457 76.6973 338.842 76.0918C338.236 75.4766 337.934 74.8027 337.934 74.0703V69.6758C337.934 68.9434 338.236 68.2744 338.842 67.6689C339.457 67.0537 340.131 66.7461 340.863 66.7461ZM341.962 68.2109C341.64 68.2109 341.386 68.333 341.2 68.5771C341.015 68.8213 340.912 69.0654 340.893 69.3096L340.863 69.6758V74.0703C340.863 74.1094 340.863 74.1631 340.863 74.2314C340.873 74.2998 340.897 74.417 340.937 74.583C340.976 74.749 341.029 74.8955 341.098 75.0225C341.166 75.1494 341.273 75.2666 341.42 75.374C341.576 75.4814 341.757 75.5352 341.962 75.5352H342.694C343.017 75.5352 343.271 75.4131 343.456 75.1689C343.642 74.9248 343.744 74.6807 343.764 74.4365L343.793 74.0703V69.6758C343.793 69.6367 343.788 69.583 343.778 69.5146C343.778 69.4463 343.759 69.3291 343.72 69.1631C343.681 68.9971 343.627 68.8506 343.559 68.7236C343.49 68.5967 343.378 68.4795 343.222 68.3721C343.075 68.2646 342.899 68.2109 342.694 68.2109H341.962ZM352.357 66.7461H355.287C356.019 66.7461 356.688 67.0537 357.294 67.6689C357.909 68.2744 358.216 68.9434 358.216 69.6758V74.0703C358.216 74.8027 357.909 75.4766 357.294 76.0918C356.688 76.6973 356.019 77 355.287 77H352.357C351.625 77 350.951 76.6973 350.336 76.0918C349.73 75.4766 349.427 74.8027 349.427 74.0703V69.6758C349.427 68.9434 349.73 68.2744 350.336 67.6689C350.951 67.0537 351.625 66.7461 352.357 66.7461ZM353.456 68.2109C353.133 68.2109 352.879 68.333 352.694 68.5771C352.508 68.8213 352.406 69.0654 352.386 69.3096L352.357 69.6758V74.0703C352.357 74.1094 352.357 74.1631 352.357 74.2314C352.367 74.2998 352.391 74.417 352.43 74.583C352.469 74.749 352.523 74.8955 352.591 75.0225C352.66 75.1494 352.767 75.2666 352.914 75.374C353.07 75.4814 353.251 75.5352 353.456 75.5352H354.188C354.51 75.5352 354.764 75.4131 354.95 75.1689C355.135 74.9248 355.238 74.6807 355.257 74.4365L355.287 74.0703V69.6758C355.287 69.6367 355.282 69.583 355.272 69.5146C355.272 69.4463 355.253 69.3291 355.213 69.1631C355.174 68.9971 355.121 68.8506 355.052 68.7236C354.984 68.5967 354.872 68.4795 354.715 68.3721C354.569 68.2646 354.393 68.2109 354.188 68.2109H353.456ZM364.583 66.7461H366.78V75.5352H369.71V77H360.921V75.5352H363.851V69.6758H361.654L364.583 66.7461Z" fill="white"/>
</g>
<path d="M296.105 78.8649L296.891 79.9173L295.951 80.8356L273.696 102.583L273.696 102.583C272.101 104.14 272.101 106.655 273.696 108.212C275.311 109.789 277.949 109.789 279.563 108.212L301.818 86.4654L302.717 85.5871L303.739 86.3182C309.537 90.4652 316.686 92.904 324.436 92.904C343.839 92.904 359.5 77.562 359.5 58.702C359.5 39.8421 343.839 24.5 324.436 24.5C305.032 24.5 289.371 39.8421 289.371 58.702C289.371 66.2415 291.877 73.207 296.105 78.8649ZM324.436 84.9188C320.919 84.9188 317.437 84.2426 314.186 82.9279C310.936 81.6132 307.98 79.6853 305.488 77.2526C302.997 74.8199 301.018 71.9298 299.668 68.7465C298.318 65.5631 297.622 62.1499 297.622 58.702C297.622 55.2541 298.318 51.8409 299.668 48.6575C301.018 45.4742 302.997 42.5841 305.488 40.1514C307.98 37.7187 310.936 35.7908 314.186 34.4761C317.437 33.1615 320.919 32.4852 324.436 32.4852C327.952 32.4852 331.435 33.1615 334.685 34.4761C337.936 35.7908 340.892 37.7187 343.383 40.1514C345.875 42.5841 347.853 45.4742 349.203 48.6575C350.554 51.8409 351.249 55.2541 351.249 58.702C351.249 62.1499 350.554 65.5631 349.203 68.7465C347.853 71.9298 345.875 74.8199 343.383 77.2526C340.892 79.6853 337.936 81.6132 334.685 82.9279C331.435 84.2426 327.952 84.9188 324.436 84.9188Z" fill="white" stroke="white" stroke-width="3"/>
<g filter="url(#filter1_d_180_1228)">
<path d="M361 132L606 -5.30481e-06H361V132Z" fill="black"/>
</g>
<defs>
<filter id="filter0_d_180_1228" x="0" y="0" width="365" height="140" filterUnits="userSpaceOnUse" color-interpolation-filters="sRGB">
<feFlood flood-opacity="0" result="BackgroundImageFix"/>
<feColorMatrix in="SourceAlpha" type="matrix" values="0 0 0 0 0 0 0 0 0 0 0 0 0 0 0 0 0 0 127 0" result="hardAlpha"/>
<feOffset dy="4"/>
<feGaussianBlur stdDeviation="2"/>
<feComposite in2="hardAlpha" operator="out"/>
<feColorMatrix type="matrix" values="0 0 0 0 0 0 0 0 0 0 0 0 0 0 0 0 0 0 0.25 0"/>
<feBlend mode="normal" in2="BackgroundImageFix" result="effect1_dropShadow_180_1228"/>
<feBlend mode="normal" in="SourceGraphic" in2="effect1_dropShadow_180_1228" result="shape"/>
</filter>
<filter id="filter1_d_180_1228" x="357" y="0" width="253" height="140" filterUnits="userSpaceOnUse" color-interpolation-filters="sRGB">
<feFlood flood-opacity="0" result="BackgroundImageFix"/>
<feColorMatrix in="SourceAlpha" type="matrix" values="0 0 0 0 0 0 0 0 0 0 0 0 0 0 0 0 0 0 127 0" result="hardAlpha"/>
<feOffset dy="4"/>
<feGaussianBlur stdDeviation="2"/>
<feComposite in2="hardAlpha" operator="out"/>
<feColorMatrix type="matrix" values="0 0 0 0 0 0 0 0 0 0 0 0 0 0 0 0 0 0 0.25 0"/>
<feBlend mode="normal" in2="BackgroundImageFix" result="effect1_dropShadow_180_1228"/>
<feBlend mode="normal" in="SourceGraphic" in2="effect1_dropShadow_180_1228" result="shape"/>
</filter>
</defs>
</svg>
