<svg width="310" height="104" viewBox="0 0 310 104" fill="none" xmlns="http://www.w3.org/2000/svg">
<path d="M4.6875 15.375C4.6875 15.375 17.1875 15.375 42.1875 15.375C44.4375 15.375 47.2188 16.4062 50.5312 18.4688C53.8438 20.5312 56.9375 23 59.8125 25.875C62.6875 28.75 65.1562 31.8437 67.2188 35.1562C69.2812 38.4688 70.3125 41.25 70.3125 43.5V52.875C70.3125 55.125 69.2812 57.9062 67.2188 61.2188C65.1562 64.5312 62.6875 67.625 59.8125 70.5C56.9375 73.375 53.8438 75.8438 50.5312 77.9062C47.2188 79.9688 44.4375 81 42.1875 81H4.6875V15.375ZM23.4375 24.75V71.625H32.8125C37.5 71.625 41.7812 69.6875 45.6562 65.8125C49.5938 61.875 51.5625 57.5625 51.5625 52.875V43.5C51.5625 38.8125 49.5938 34.5312 45.6562 30.6562C41.7812 26.7188 37.5 24.75 32.8125 24.75H23.4375ZM78.2475 15.375C78.2475 15.375 93.8725 15.375 125.122 15.375C129.81 15.375 134.091 17.3438 137.966 21.2812C141.904 25.1563 143.872 29.4375 143.872 34.125C143.872 39.5 141.497 44.1875 136.747 48.1875C141.497 52.1875 143.872 56.875 143.872 62.25V81H125.122V62.25C125.122 62 125.091 61.6562 125.029 61.2188C125.029 60.7812 124.904 60.0312 124.654 58.9688C124.404 57.9062 124.06 56.9688 123.622 56.1562C123.185 55.3438 122.466 54.5938 121.466 53.9062C120.529 53.2188 119.404 52.875 118.091 52.875H96.9975V81H78.2475V15.375ZM96.9975 24.75V43.5H118.091C120.154 43.5 121.779 42.7188 122.966 41.1562C124.154 39.5938 124.81 38.0312 124.935 36.4688L125.122 34.125C125.122 33.875 125.091 33.5312 125.029 33.0938C125.029 32.6562 124.904 31.9063 124.654 30.8438C124.404 29.7812 124.06 28.8437 123.622 28.0312C123.185 27.2188 122.466 26.4688 121.466 25.7812C120.529 25.0937 119.404 24.75 118.091 24.75H96.9975ZM179.932 15.375C179.932 15.375 183.057 15.375 189.307 15.375C191.557 15.375 194.339 16.4062 197.651 18.4688C200.964 20.5312 204.057 23 206.932 25.875C209.807 28.75 212.276 31.8437 214.339 35.1562C216.401 38.4688 217.432 41.25 217.432 43.5V81H198.682V62.25H170.557V81H151.807V43.5C151.807 41.25 152.839 38.4688 154.901 35.1562C156.964 31.8437 159.432 28.75 162.307 25.875C165.182 23 168.276 20.5312 171.589 18.4688C174.901 16.4062 177.682 15.375 179.932 15.375ZM194.932 30.375C192.495 26.625 189.057 24.75 184.62 24.75C180.182 24.75 176.714 26.625 174.214 30.375C171.776 34.0625 170.557 38.4375 170.557 43.5V52.875H198.682V43.5C198.682 38.4375 197.432 34.0625 194.932 30.375Z" fill="white"/>
<path d="M10.5859 86.7969C10.5859 86.7969 12.1484 86.7969 15.2734 86.7969C15.5547 86.7969 15.9023 86.9258 16.3164 87.1836C16.7305 87.4414 17.1172 87.75 17.4766 88.1094C17.8359 88.4688 18.1445 88.8555 18.4023 89.2695C18.6602 89.6836 18.7891 90.0312 18.7891 90.3125V91.4844C18.7891 91.7656 18.6602 92.1133 18.4023 92.5273C18.1445 92.9414 17.8359 93.3281 17.4766 93.6875C17.1172 94.0469 16.7305 94.3555 16.3164 94.6133C15.9023 94.8711 15.5547 95 15.2734 95H10.5859V86.7969ZM12.9297 87.9688V93.8281H14.1016C14.6875 93.8281 15.2227 93.5859 15.707 93.1016C16.1992 92.6094 16.4453 92.0703 16.4453 91.4844V90.3125C16.4453 89.7266 16.1992 89.1914 15.707 88.707C15.2227 88.2148 14.6875 87.9688 14.1016 87.9688H12.9297ZM23.2966 86.7969C23.2966 86.7969 23.6872 86.7969 24.4684 86.7969C24.7497 86.7969 25.0973 86.9258 25.5114 87.1836C25.9255 87.4414 26.3122 87.75 26.6716 88.1094C27.0309 88.4688 27.3395 88.8555 27.5973 89.2695C27.8552 89.6836 27.9841 90.0312 27.9841 90.3125V95H25.6403V92.6562H22.1247V95H19.7809V90.3125C19.7809 90.0312 19.9098 89.6836 20.1677 89.2695C20.4255 88.8555 20.7341 88.4688 21.0934 88.1094C21.4528 87.75 21.8395 87.4414 22.2536 87.1836C22.6677 86.9258 23.0153 86.7969 23.2966 86.7969ZM25.1716 88.6719C24.8669 88.2031 24.4372 87.9688 23.8825 87.9688C23.3278 87.9688 22.8942 88.2031 22.5817 88.6719C22.277 89.1328 22.1247 89.6797 22.1247 90.3125V91.4844H25.6403V90.3125C25.6403 89.6797 25.4841 89.1328 25.1716 88.6719ZM29.5619 86.7969H36.5931V87.9688H34.2494V95H31.9056V87.9688H29.5619V86.7969ZM41.6866 86.7969C41.6866 86.7969 42.0772 86.7969 42.8584 86.7969C43.1397 86.7969 43.4873 86.9258 43.9014 87.1836C44.3155 87.4414 44.7022 87.75 45.0616 88.1094C45.4209 88.4688 45.7295 88.8555 45.9873 89.2695C46.2452 89.6836 46.3741 90.0312 46.3741 90.3125V95H44.0303V92.6562H40.5147V95H38.1709V90.3125C38.1709 90.0312 38.2998 89.6836 38.5577 89.2695C38.8155 88.8555 39.1241 88.4688 39.4834 88.1094C39.8428 87.75 40.2295 87.4414 40.6436 87.1836C41.0577 86.9258 41.4053 86.7969 41.6866 86.7969ZM43.5616 88.6719C43.2569 88.2031 42.8272 87.9688 42.2725 87.9688C41.7178 87.9688 41.2842 88.2031 40.9717 88.6719C40.667 89.1328 40.5147 89.6797 40.5147 90.3125V91.4844H44.0303V90.3125C44.0303 89.6797 43.8741 89.1328 43.5616 88.6719ZM56.5609 86.7969C56.5609 86.7969 58.5141 86.7969 62.4203 86.7969C63.0062 86.7969 63.5414 87.043 64.0258 87.5352C64.518 88.0195 64.7641 88.5547 64.7641 89.1406C64.7641 89.8125 64.4672 90.3984 63.8734 90.8984C64.4672 91.3984 64.7641 91.9844 64.7641 92.6562V95H62.4203V92.6562C62.4203 92.625 62.4164 92.582 62.4086 92.5273C62.4086 92.4727 62.393 92.3789 62.3617 92.2461C62.3305 92.1133 62.2875 91.9961 62.2328 91.8945C62.1781 91.793 62.0883 91.6992 61.9633 91.6133C61.8461 91.5273 61.7055 91.4844 61.5414 91.4844H58.9047V95H56.5609V86.7969ZM58.9047 87.9688V90.3125H61.5414C61.7992 90.3125 62.0023 90.2148 62.1508 90.0195C62.2992 89.8242 62.3812 89.6289 62.3969 89.4336L62.4203 89.1406C62.4203 89.1094 62.4164 89.0664 62.4086 89.0117C62.4086 88.957 62.393 88.8633 62.3617 88.7305C62.3305 88.5977 62.2875 88.4805 62.2328 88.3789C62.1781 88.2773 62.0883 88.1836 61.9633 88.0977C61.8461 88.0117 61.7055 87.9688 61.5414 87.9688H58.9047ZM65.7559 86.7969H68.0997H73.9591V87.9688H68.0997V90.3125H72.7872V91.4844H68.0997V93.8281H73.9591V95H68.0997H65.7559V86.7969ZM77.8806 86.7969C77.8806 86.7969 78.6619 86.7969 80.2244 86.7969C80.8103 86.7969 81.3455 87.043 81.8298 87.5352C82.322 88.0195 82.5681 88.5547 82.5681 89.1406H80.2244C80.2244 89.1094 80.2205 89.0664 80.2127 89.0117C80.2127 88.957 80.197 88.8633 80.1658 88.7305C80.1345 88.5977 80.0916 88.4805 80.0369 88.3789C79.9822 88.2773 79.8923 88.1836 79.7673 88.0977C79.6502 88.0117 79.5095 87.9688 79.3455 87.9688H78.7595C78.5017 87.9688 78.2986 88.0195 78.1502 88.1211C78.0017 88.2148 77.9197 88.3125 77.9041 88.4141L77.8806 88.5547C77.8806 88.7656 78.0408 89.0195 78.3611 89.3164C78.6814 89.6055 79.072 89.9062 79.533 90.2188C79.9939 90.5234 80.4548 90.8398 80.9158 91.168C81.3767 91.4883 81.7673 91.8359 82.0877 92.2109C82.408 92.5781 82.5681 92.9219 82.5681 93.2422V93.2656C82.5603 93.7031 82.3103 94.1016 81.8181 94.4609C81.3337 94.8203 80.8025 95 80.2244 95H77.8806C77.2947 95 76.7556 94.7578 76.2634 94.2734C75.7791 93.7812 75.5369 93.2422 75.5369 92.6562H77.8806C77.8806 92.6875 77.8806 92.7305 77.8806 92.7852C77.8884 92.8398 77.908 92.9336 77.9392 93.0664C77.9705 93.1992 78.0134 93.3164 78.0681 93.418C78.1228 93.5195 78.2087 93.6133 78.3259 93.6992C78.4509 93.7852 78.5955 93.8281 78.7595 93.8281H79.3455C79.6033 93.8281 79.8064 93.7812 79.9548 93.6875C80.1033 93.5859 80.1853 93.4844 80.2009 93.3828L80.2244 93.2422C80.2244 93.0312 80.0642 92.7812 79.7439 92.4922C79.4236 92.1953 79.033 91.8945 78.572 91.5898C78.1111 91.2773 77.6502 90.9609 77.1892 90.6406C76.7283 90.3125 76.3377 89.9648 76.0173 89.5977C75.697 89.2227 75.5369 88.875 75.5369 88.5547V88.5312C75.5447 88.0938 75.7908 87.6953 76.2752 87.3359C76.7673 86.9766 77.3025 86.7969 77.8806 86.7969ZM84.1459 86.7969H86.4897H92.3491V87.9688H86.4897V90.3125H91.1772V91.4844H86.4897V93.8281H92.3491V95H86.4897H84.1459V86.7969ZM96.8566 86.7969C96.8566 86.7969 97.2472 86.7969 98.0284 86.7969C98.3097 86.7969 98.6573 86.9258 99.0714 87.1836C99.4855 87.4414 99.8722 87.75 100.232 88.1094C100.591 88.4688 100.9 88.8555 101.157 89.2695C101.415 89.6836 101.544 90.0312 101.544 90.3125V95H99.2003V92.6562H95.6847V95H93.3409V90.3125C93.3409 90.0312 93.4698 89.6836 93.7277 89.2695C93.9855 88.8555 94.2941 88.4688 94.6534 88.1094C95.0128 87.75 95.3995 87.4414 95.8136 87.1836C96.2277 86.9258 96.5753 86.7969 96.8566 86.7969ZM98.7316 88.6719C98.4269 88.2031 97.9972 87.9688 97.4425 87.9688C96.8878 87.9688 96.4542 88.2031 96.1417 88.6719C95.837 89.1328 95.6847 89.6797 95.6847 90.3125V91.4844H99.2003V90.3125C99.2003 89.6797 99.0441 89.1328 98.7316 88.6719ZM102.536 86.7969C102.536 86.7969 104.489 86.7969 108.395 86.7969C108.981 86.7969 109.516 87.043 110.001 87.5352C110.493 88.0195 110.739 88.5547 110.739 89.1406C110.739 89.8125 110.442 90.3984 109.848 90.8984C110.442 91.3984 110.739 91.9844 110.739 92.6562V95H108.395V92.6562C108.395 92.625 108.391 92.582 108.384 92.5273C108.384 92.4727 108.368 92.3789 108.337 92.2461C108.305 92.1133 108.262 91.9961 108.208 91.8945C108.153 91.793 108.063 91.6992 107.938 91.6133C107.821 91.5273 107.68 91.4844 107.516 91.4844H104.88V95H102.536V86.7969ZM104.88 87.9688V90.3125H107.516C107.774 90.3125 107.977 90.2148 108.126 90.0195C108.274 89.8242 108.356 89.6289 108.372 89.4336L108.395 89.1406C108.395 89.1094 108.391 89.0664 108.384 89.0117C108.384 88.957 108.368 88.8633 108.337 88.7305C108.305 88.5977 108.262 88.4805 108.208 88.3789C108.153 88.2773 108.063 88.1836 107.938 88.0977C107.821 88.0117 107.68 87.9688 107.516 87.9688H104.88ZM114.075 86.7969C114.075 86.7969 115.247 86.7969 117.59 86.7969C118.176 86.7969 118.711 87.043 119.196 87.5352C119.688 88.0195 119.934 88.5547 119.934 89.1406V90.3125H117.59V89.1406C117.59 89.1094 117.586 89.0664 117.579 89.0117C117.579 88.957 117.563 88.8633 117.532 88.7305C117.5 88.5977 117.457 88.4805 117.403 88.3789C117.348 88.2773 117.258 88.1836 117.133 88.0977C117.016 88.0117 116.875 87.9688 116.711 87.9688H114.954C114.696 87.9688 114.493 88.0664 114.344 88.2617C114.196 88.457 114.114 88.6523 114.098 88.8477L114.075 89.1406V92.6562C114.075 92.6875 114.075 92.7305 114.075 92.7852C114.082 92.8398 114.102 92.9336 114.133 93.0664C114.165 93.1992 114.207 93.3164 114.262 93.418C114.317 93.5195 114.403 93.6133 114.52 93.6992C114.645 93.7852 114.79 93.8281 114.954 93.8281H116.711C116.969 93.8281 117.172 93.7305 117.321 93.5352C117.469 93.3398 117.551 93.1445 117.567 92.9492L117.59 92.6562H119.934C119.934 93.2422 119.688 93.7812 119.196 94.2734C118.711 94.7578 118.176 95 117.59 95H114.075C113.489 95 112.95 94.7578 112.457 94.2734C111.973 93.7812 111.731 93.2422 111.731 92.6562V89.1406C111.731 88.5547 111.973 88.0195 112.457 87.5352C112.95 87.043 113.489 86.7969 114.075 86.7969ZM120.926 86.7969H123.27V90.3125H126.785V86.7969H129.129V95H126.785V91.4844H123.27V95H120.926V86.7969ZM142.832 86.7969C142.832 86.7969 143.222 86.7969 144.003 86.7969C144.285 86.7969 144.632 86.9258 145.046 87.1836C145.46 87.4414 145.847 87.75 146.207 88.1094C146.566 88.4688 146.875 88.8555 147.132 89.2695C147.39 89.6836 147.519 90.0312 147.519 90.3125V95H145.175V92.6562H141.66V95H139.316V90.3125C139.316 90.0312 139.445 89.6836 139.703 89.2695C139.96 88.8555 140.269 88.4688 140.628 88.1094C140.988 87.75 141.375 87.4414 141.789 87.1836C142.203 86.9258 142.55 86.7969 142.832 86.7969ZM144.707 88.6719C144.402 88.2031 143.972 87.9688 143.417 87.9688C142.863 87.9688 142.429 88.2031 142.117 88.6719C141.812 89.1328 141.66 89.6797 141.66 90.3125V91.4844H145.175V90.3125C145.175 89.6797 145.019 89.1328 144.707 88.6719ZM148.511 86.7969H150.855L154.37 90.3125V86.7969H156.714V95H154.37V92.6562L150.855 89.1406V95H148.511V86.7969ZM161.222 86.7969C161.222 86.7969 161.612 86.7969 162.393 86.7969C162.675 86.7969 163.022 86.9258 163.436 87.1836C163.85 87.4414 164.237 87.75 164.597 88.1094C164.956 88.4688 165.265 88.8555 165.522 89.2695C165.78 89.6836 165.909 90.0312 165.909 90.3125V95H163.565V92.6562H160.05V95H157.706V90.3125C157.706 90.0312 157.835 89.6836 158.093 89.2695C158.35 88.8555 158.659 88.4688 159.018 88.1094C159.378 87.75 159.765 87.4414 160.179 87.1836C160.593 86.9258 160.94 86.7969 161.222 86.7969ZM163.097 88.6719C162.792 88.2031 162.362 87.9688 161.807 87.9688C161.253 87.9688 160.819 88.2031 160.507 88.6719C160.202 89.1328 160.05 89.6797 160.05 90.3125V91.4844H163.565V90.3125C163.565 89.6797 163.409 89.1328 163.097 88.6719ZM166.901 86.7969H169.245V93.8281H175.104V95H169.245H166.901V86.7969ZM176.096 86.7969H178.44V87.9688L180.197 89.7266L181.955 87.9688V86.7969H184.299V87.9688L181.369 90.8984V95H179.026V90.8984L176.096 87.9688V86.7969ZM188.221 86.7969C188.221 86.7969 189.002 86.7969 190.564 86.7969C191.15 86.7969 191.685 87.043 192.17 87.5352C192.662 88.0195 192.908 88.5547 192.908 89.1406H190.564C190.564 89.1094 190.56 89.0664 190.553 89.0117C190.553 88.957 190.537 88.8633 190.506 88.7305C190.475 88.5977 190.432 88.4805 190.377 88.3789C190.322 88.2773 190.232 88.1836 190.107 88.0977C189.99 88.0117 189.85 87.9688 189.685 87.9688H189.1C188.842 87.9688 188.639 88.0195 188.49 88.1211C188.342 88.2148 188.26 88.3125 188.244 88.4141L188.221 88.5547C188.221 88.7656 188.381 89.0195 188.701 89.3164C189.021 89.6055 189.412 89.9062 189.873 90.2188C190.334 90.5234 190.795 90.8398 191.256 91.168C191.717 91.4883 192.107 91.8359 192.428 92.2109C192.748 92.5781 192.908 92.9219 192.908 93.2422V93.2656C192.9 93.7031 192.65 94.1016 192.158 94.4609C191.674 94.8203 191.143 95 190.564 95H188.221C187.635 95 187.096 94.7578 186.603 94.2734C186.119 93.7812 185.877 93.2422 185.877 92.6562H188.221C188.221 92.6875 188.221 92.7305 188.221 92.7852C188.228 92.8398 188.248 92.9336 188.279 93.0664C188.31 93.1992 188.353 93.3164 188.408 93.418C188.463 93.5195 188.549 93.6133 188.666 93.6992C188.791 93.7852 188.935 93.8281 189.1 93.8281H189.685C189.943 93.8281 190.146 93.7812 190.295 93.6875C190.443 93.5859 190.525 93.4844 190.541 93.3828L190.564 93.2422C190.564 93.0312 190.404 92.7812 190.084 92.4922C189.764 92.1953 189.373 91.8945 188.912 91.5898C188.451 91.2773 187.99 90.9609 187.529 90.6406C187.068 90.3125 186.678 89.9648 186.357 89.5977C186.037 89.2227 185.877 88.875 185.877 88.5547V88.5312C185.885 88.0938 186.131 87.6953 186.615 87.3359C187.107 86.9766 187.643 86.7969 188.221 86.7969ZM196.244 86.7969H200.931V87.9688H199.759V93.8281H200.931V95H196.244V93.8281H197.416V87.9688H196.244V86.7969ZM206.611 86.7969C206.611 86.7969 207.392 86.7969 208.954 86.7969C209.54 86.7969 210.075 87.043 210.56 87.5352C211.052 88.0195 211.298 88.5547 211.298 89.1406H208.954C208.954 89.1094 208.95 89.0664 208.943 89.0117C208.943 88.957 208.927 88.8633 208.896 88.7305C208.865 88.5977 208.822 88.4805 208.767 88.3789C208.712 88.2773 208.622 88.1836 208.497 88.0977C208.38 88.0117 208.24 87.9688 208.075 87.9688H207.49C207.232 87.9688 207.029 88.0195 206.88 88.1211C206.732 88.2148 206.65 88.3125 206.634 88.4141L206.611 88.5547C206.611 88.7656 206.771 89.0195 207.091 89.3164C207.411 89.6055 207.802 89.9062 208.263 90.2188C208.724 90.5234 209.185 90.8398 209.646 91.168C210.107 91.4883 210.497 91.8359 210.818 92.2109C211.138 92.5781 211.298 92.9219 211.298 93.2422V93.2656C211.29 93.7031 211.04 94.1016 210.548 94.4609C210.064 94.8203 209.533 95 208.954 95H206.611C206.025 95 205.486 94.7578 204.993 94.2734C204.509 93.7812 204.267 93.2422 204.267 92.6562H206.611C206.611 92.6875 206.611 92.7305 206.611 92.7852C206.618 92.8398 206.638 92.9336 206.669 93.0664C206.7 93.1992 206.743 93.3164 206.798 93.418C206.853 93.5195 206.939 93.6133 207.056 93.6992C207.181 93.7852 207.325 93.8281 207.49 93.8281H208.075C208.333 93.8281 208.536 93.7812 208.685 93.6875C208.833 93.5859 208.915 93.4844 208.931 93.3828L208.954 93.2422C208.954 93.0312 208.794 92.7812 208.474 92.4922C208.154 92.1953 207.763 91.8945 207.302 91.5898C206.841 91.2773 206.38 90.9609 205.919 90.6406C205.458 90.3125 205.068 89.9648 204.747 89.5977C204.427 89.2227 204.267 88.875 204.267 88.5547V88.5312C204.275 88.0938 204.521 87.6953 205.005 87.3359C205.497 86.9766 206.033 86.7969 206.611 86.7969Z" fill="white"/>
<mask id="mask0_698_1700" style="mask-type:alpha" maskUnits="userSpaceOnUse" x="248" y="18" width="52" height="52">
<circle cx="274" cy="44" r="26" fill="white"/>
</mask>
<g mask="url(#mask0_698_1700)">
<path d="M232.395 24.7461H235.324C236.057 24.7461 236.726 25.0537 237.331 25.6689C237.946 26.2744 238.254 26.9434 238.254 27.6758V32.0703C238.254 32.8027 237.946 33.4766 237.331 34.0918C236.726 34.6973 236.057 35 235.324 35H232.395C231.662 35 230.988 34.6973 230.373 34.0918C229.768 33.4766 229.465 32.8027 229.465 32.0703V27.6758C229.465 26.9434 229.768 26.2744 230.373 25.6689C230.988 25.0537 231.662 24.7461 232.395 24.7461ZM233.493 26.2109C233.171 26.2109 232.917 26.333 232.731 26.5771C232.546 26.8213 232.443 27.0654 232.424 27.3096L232.395 27.6758V32.0703C232.395 32.1094 232.395 32.1631 232.395 32.2314C232.404 32.2998 232.429 32.417 232.468 32.583C232.507 32.749 232.561 32.8955 232.629 33.0225C232.697 33.1494 232.805 33.2666 232.951 33.374C233.107 33.4814 233.288 33.5352 233.493 33.5352H234.226C234.548 33.5352 234.802 33.4131 234.987 33.1689C235.173 32.9248 235.275 32.6807 235.295 32.4365L235.324 32.0703V27.6758C235.324 27.6367 235.319 27.583 235.31 27.5146C235.31 27.4463 235.29 27.3291 235.251 27.1631C235.212 26.9971 235.158 26.8506 235.09 26.7236C235.021 26.5967 234.909 26.4795 234.753 26.3721C234.606 26.2646 234.431 26.2109 234.226 26.2109H233.493ZM244.621 24.7461H246.818V33.5352H249.748V35H240.959V33.5352H243.888V27.6758H241.691L244.621 24.7461ZM255.382 24.7461H258.312C259.044 24.7461 259.713 25.0537 260.319 25.6689C260.934 26.2744 261.241 26.9434 261.241 27.6758V32.0703C261.241 32.8027 260.934 33.4766 260.319 34.0918C259.713 34.6973 259.044 35 258.312 35H255.382C254.65 35 253.976 34.6973 253.361 34.0918C252.755 33.4766 252.452 32.8027 252.452 32.0703V27.6758C252.452 26.9434 252.755 26.2744 253.361 25.6689C253.976 25.0537 254.65 24.7461 255.382 24.7461ZM256.481 26.2109C256.158 26.2109 255.904 26.333 255.719 26.5771C255.533 26.8213 255.431 27.0654 255.411 27.3096L255.382 27.6758V32.0703C255.382 32.1094 255.382 32.1631 255.382 32.2314C255.392 32.2998 255.416 32.417 255.455 32.583C255.494 32.749 255.548 32.8955 255.616 33.0225C255.685 33.1494 255.792 33.2666 255.939 33.374C256.095 33.4814 256.276 33.5352 256.481 33.5352H257.213C257.535 33.5352 257.789 33.4131 257.975 33.1689C258.16 32.9248 258.263 32.6807 258.282 32.4365L258.312 32.0703V27.6758C258.312 27.6367 258.307 27.583 258.297 27.5146C258.297 27.4463 258.278 27.3291 258.238 27.1631C258.199 26.9971 258.146 26.8506 258.077 26.7236C258.009 26.5967 257.897 26.4795 257.74 26.3721C257.594 26.2646 257.418 26.2109 257.213 26.2109H256.481ZM266.876 24.7461H269.805C270.538 24.7461 271.207 25.0537 271.812 25.6689C272.428 26.2744 272.735 26.9434 272.735 27.6758V32.0703C272.735 32.8027 272.428 33.4766 271.812 34.0918C271.207 34.6973 270.538 35 269.805 35H266.876C266.143 35 265.47 34.6973 264.854 34.0918C264.249 33.4766 263.946 32.8027 263.946 32.0703V27.6758C263.946 26.9434 264.249 26.2744 264.854 25.6689C265.47 25.0537 266.143 24.7461 266.876 24.7461ZM267.974 26.2109C267.652 26.2109 267.398 26.333 267.213 26.5771C267.027 26.8213 266.925 27.0654 266.905 27.3096L266.876 27.6758V32.0703C266.876 32.1094 266.876 32.1631 266.876 32.2314C266.886 32.2998 266.91 32.417 266.949 32.583C266.988 32.749 267.042 32.8955 267.11 33.0225C267.179 33.1494 267.286 33.2666 267.432 33.374C267.589 33.4814 267.769 33.5352 267.974 33.5352H268.707C269.029 33.5352 269.283 33.4131 269.469 33.1689C269.654 32.9248 269.757 32.6807 269.776 32.4365L269.805 32.0703V27.6758C269.805 27.6367 269.801 27.583 269.791 27.5146C269.791 27.4463 269.771 27.3291 269.732 27.1631C269.693 26.9971 269.639 26.8506 269.571 26.7236C269.503 26.5967 269.39 26.4795 269.234 26.3721C269.088 26.2646 268.912 26.2109 268.707 26.2109H267.974ZM278.37 24.7461H281.299C282.032 24.7461 282.701 25.0537 283.306 25.6689C283.921 26.2744 284.229 26.9434 284.229 27.6758V32.0703C284.229 32.8027 283.921 33.4766 283.306 34.0918C282.701 34.6973 282.032 35 281.299 35H278.37C277.637 35 276.963 34.6973 276.348 34.0918C275.743 33.4766 275.44 32.8027 275.44 32.0703V27.6758C275.44 26.9434 275.743 26.2744 276.348 25.6689C276.963 25.0537 277.637 24.7461 278.37 24.7461ZM279.468 26.2109C279.146 26.2109 278.892 26.333 278.706 26.5771C278.521 26.8213 278.418 27.0654 278.399 27.3096L278.37 27.6758V32.0703C278.37 32.1094 278.37 32.1631 278.37 32.2314C278.379 32.2998 278.404 32.417 278.443 32.583C278.482 32.749 278.536 32.8955 278.604 33.0225C278.672 33.1494 278.78 33.2666 278.926 33.374C279.082 33.4814 279.263 33.5352 279.468 33.5352H280.201C280.523 33.5352 280.777 33.4131 280.962 33.1689C281.148 32.9248 281.25 32.6807 281.27 32.4365L281.299 32.0703V27.6758C281.299 27.6367 281.294 27.583 281.285 27.5146C281.285 27.4463 281.265 27.3291 281.226 27.1631C281.187 26.9971 281.133 26.8506 281.065 26.7236C280.996 26.5967 280.884 26.4795 280.728 26.3721C280.581 26.2646 280.406 26.2109 280.201 26.2109H279.468ZM290.596 24.7461H292.793V33.5352H295.723V35H286.934V33.5352H289.863V27.6758H287.666L290.596 24.7461ZM301.357 24.7461H304.287C305.019 24.7461 305.688 25.0537 306.294 25.6689C306.909 26.2744 307.216 26.9434 307.216 27.6758V32.0703C307.216 32.8027 306.909 33.4766 306.294 34.0918C305.688 34.6973 305.019 35 304.287 35H301.357C300.625 35 299.951 34.6973 299.336 34.0918C298.73 33.4766 298.427 32.8027 298.427 32.0703V27.6758C298.427 26.9434 298.73 26.2744 299.336 25.6689C299.951 25.0537 300.625 24.7461 301.357 24.7461ZM302.456 26.2109C302.133 26.2109 301.879 26.333 301.694 26.5771C301.508 26.8213 301.406 27.0654 301.386 27.3096L301.357 27.6758V32.0703C301.357 32.1094 301.357 32.1631 301.357 32.2314C301.367 32.2998 301.391 32.417 301.43 32.583C301.469 32.749 301.523 32.8955 301.591 33.0225C301.66 33.1494 301.767 33.2666 301.914 33.374C302.07 33.4814 302.251 33.5352 302.456 33.5352H303.188C303.51 33.5352 303.764 33.4131 303.95 33.1689C304.135 32.9248 304.238 32.6807 304.257 32.4365L304.287 32.0703V27.6758C304.287 27.6367 304.282 27.583 304.272 27.5146C304.272 27.4463 304.253 27.3291 304.213 27.1631C304.174 26.9971 304.121 26.8506 304.052 26.7236C303.984 26.5967 303.872 26.4795 303.715 26.3721C303.569 26.2646 303.393 26.2109 303.188 26.2109H302.456ZM312.851 24.7461H315.78C316.513 24.7461 317.182 25.0537 317.787 25.6689C318.403 26.2744 318.71 26.9434 318.71 27.6758V32.0703C318.71 32.8027 318.403 33.4766 317.787 34.0918C317.182 34.6973 316.513 35 315.78 35H312.851C312.118 35 311.445 34.6973 310.829 34.0918C310.224 33.4766 309.921 32.8027 309.921 32.0703V27.6758C309.921 26.9434 310.224 26.2744 310.829 25.6689C311.445 25.0537 312.118 24.7461 312.851 24.7461ZM313.949 26.2109C313.627 26.2109 313.373 26.333 313.188 26.5771C313.002 26.8213 312.9 27.0654 312.88 27.3096L312.851 27.6758V32.0703C312.851 32.1094 312.851 32.1631 312.851 32.2314C312.861 32.2998 312.885 32.417 312.924 32.583C312.963 32.749 313.017 32.8955 313.085 33.0225C313.154 33.1494 313.261 33.2666 313.407 33.374C313.564 33.4814 313.744 33.5352 313.949 33.5352H314.682C315.004 33.5352 315.258 33.4131 315.444 33.1689C315.629 32.9248 315.732 32.6807 315.751 32.4365L315.78 32.0703V27.6758C315.78 27.6367 315.776 27.583 315.766 27.5146C315.766 27.4463 315.746 27.3291 315.707 27.1631C315.668 26.9971 315.614 26.8506 315.546 26.7236C315.478 26.5967 315.365 26.4795 315.209 26.3721C315.063 26.2646 314.887 26.2109 314.682 26.2109H313.949Z" fill="white"/>
<path d="M232.395 38.7461H235.324C236.057 38.7461 236.726 39.0537 237.331 39.6689C237.946 40.2744 238.254 40.9434 238.254 41.6758V46.0703C238.254 46.8027 237.946 47.4766 237.331 48.0918C236.726 48.6973 236.057 49 235.324 49H232.395C231.662 49 230.988 48.6973 230.373 48.0918C229.768 47.4766 229.465 46.8027 229.465 46.0703V41.6758C229.465 40.9434 229.768 40.2744 230.373 39.6689C230.988 39.0537 231.662 38.7461 232.395 38.7461ZM233.493 40.2109C233.171 40.2109 232.917 40.333 232.731 40.5771C232.546 40.8213 232.443 41.0654 232.424 41.3096L232.395 41.6758V46.0703C232.395 46.1094 232.395 46.1631 232.395 46.2314C232.404 46.2998 232.429 46.417 232.468 46.583C232.507 46.749 232.561 46.8955 232.629 47.0225C232.697 47.1494 232.805 47.2666 232.951 47.374C233.107 47.4814 233.288 47.5352 233.493 47.5352H234.226C234.548 47.5352 234.802 47.4131 234.987 47.1689C235.173 46.9248 235.275 46.6807 235.295 46.4365L235.324 46.0703V41.6758C235.324 41.6367 235.319 41.583 235.31 41.5146C235.31 41.4463 235.29 41.3291 235.251 41.1631C235.212 40.9971 235.158 40.8506 235.09 40.7236C235.021 40.5967 234.909 40.4795 234.753 40.3721C234.606 40.2646 234.431 40.2109 234.226 40.2109H233.493ZM244.621 38.7461H246.818V47.5352H249.748V49H240.959V47.5352H243.888V41.6758H241.691L244.621 38.7461ZM255.382 38.7461H258.312C259.044 38.7461 259.713 39.0537 260.319 39.6689C260.934 40.2744 261.241 40.9434 261.241 41.6758V46.0703C261.241 46.8027 260.934 47.4766 260.319 48.0918C259.713 48.6973 259.044 49 258.312 49H255.382C254.65 49 253.976 48.6973 253.361 48.0918C252.755 47.4766 252.452 46.8027 252.452 46.0703V41.6758C252.452 40.9434 252.755 40.2744 253.361 39.6689C253.976 39.0537 254.65 38.7461 255.382 38.7461ZM256.481 40.2109C256.158 40.2109 255.904 40.333 255.719 40.5771C255.533 40.8213 255.431 41.0654 255.411 41.3096L255.382 41.6758V46.0703C255.382 46.1094 255.382 46.1631 255.382 46.2314C255.392 46.2998 255.416 46.417 255.455 46.583C255.494 46.749 255.548 46.8955 255.616 47.0225C255.685 47.1494 255.792 47.2666 255.939 47.374C256.095 47.4814 256.276 47.5352 256.481 47.5352H257.213C257.535 47.5352 257.789 47.4131 257.975 47.1689C258.16 46.9248 258.263 46.6807 258.282 46.4365L258.312 46.0703V41.6758C258.312 41.6367 258.307 41.583 258.297 41.5146C258.297 41.4463 258.278 41.3291 258.238 41.1631C258.199 40.9971 258.146 40.8506 258.077 40.7236C258.009 40.5967 257.897 40.4795 257.74 40.3721C257.594 40.2646 257.418 40.2109 257.213 40.2109H256.481ZM267.608 38.7461H269.805V47.5352H272.735V49H263.946V47.5352H266.876V41.6758H264.679L267.608 38.7461ZM278.37 38.7461H281.299C282.032 38.7461 282.701 39.0537 283.306 39.6689C283.921 40.2744 284.229 40.9434 284.229 41.6758V46.0703C284.229 46.8027 283.921 47.4766 283.306 48.0918C282.701 48.6973 282.032 49 281.299 49H278.37C277.637 49 276.963 48.6973 276.348 48.0918C275.743 47.4766 275.44 46.8027 275.44 46.0703V41.6758C275.44 40.9434 275.743 40.2744 276.348 39.6689C276.963 39.0537 277.637 38.7461 278.37 38.7461ZM279.468 40.2109C279.146 40.2109 278.892 40.333 278.706 40.5771C278.521 40.8213 278.418 41.0654 278.399 41.3096L278.37 41.6758V46.0703C278.37 46.1094 278.37 46.1631 278.37 46.2314C278.379 46.2998 278.404 46.417 278.443 46.583C278.482 46.749 278.536 46.8955 278.604 47.0225C278.672 47.1494 278.78 47.2666 278.926 47.374C279.082 47.4814 279.263 47.5352 279.468 47.5352H280.201C280.523 47.5352 280.777 47.4131 280.962 47.1689C281.148 46.9248 281.25 46.6807 281.27 46.4365L281.299 46.0703V41.6758C281.299 41.6367 281.294 41.583 281.285 41.5146C281.285 41.4463 281.265 41.3291 281.226 41.1631C281.187 40.9971 281.133 40.8506 281.065 40.7236C280.996 40.5967 280.884 40.4795 280.728 40.3721C280.581 40.2646 280.406 40.2109 280.201 40.2109H279.468ZM289.863 38.7461H292.793C293.525 38.7461 294.194 39.0537 294.8 39.6689C295.415 40.2744 295.723 40.9434 295.723 41.6758V46.0703C295.723 46.8027 295.415 47.4766 294.8 48.0918C294.194 48.6973 293.525 49 292.793 49H289.863C289.131 49 288.457 48.6973 287.842 48.0918C287.236 47.4766 286.934 46.8027 286.934 46.0703V41.6758C286.934 40.9434 287.236 40.2744 287.842 39.6689C288.457 39.0537 289.131 38.7461 289.863 38.7461ZM290.962 40.2109C290.64 40.2109 290.386 40.333 290.2 40.5771C290.015 40.8213 289.912 41.0654 289.893 41.3096L289.863 41.6758V46.0703C289.863 46.1094 289.863 46.1631 289.863 46.2314C289.873 46.2998 289.897 46.417 289.937 46.583C289.976 46.749 290.029 46.8955 290.098 47.0225C290.166 47.1494 290.273 47.2666 290.42 47.374C290.576 47.4814 290.757 47.5352 290.962 47.5352H291.694C292.017 47.5352 292.271 47.4131 292.456 47.1689C292.642 46.9248 292.744 46.6807 292.764 46.4365L292.793 46.0703V41.6758C292.793 41.6367 292.788 41.583 292.778 41.5146C292.778 41.4463 292.759 41.3291 292.72 41.1631C292.681 40.9971 292.627 40.8506 292.559 40.7236C292.49 40.5967 292.378 40.4795 292.222 40.3721C292.075 40.2646 291.899 40.2109 291.694 40.2109H290.962ZM302.089 38.7461H304.287V47.5352H307.216V49H298.427V47.5352H301.357V41.6758H299.16L302.089 38.7461ZM312.851 38.7461H315.78C316.513 38.7461 317.182 39.0537 317.787 39.6689C318.403 40.2744 318.71 40.9434 318.71 41.6758V46.0703C318.71 46.8027 318.403 47.4766 317.787 48.0918C317.182 48.6973 316.513 49 315.78 49H312.851C312.118 49 311.445 48.6973 310.829 48.0918C310.224 47.4766 309.921 46.8027 309.921 46.0703V41.6758C309.921 40.9434 310.224 40.2744 310.829 39.6689C311.445 39.0537 312.118 38.7461 312.851 38.7461ZM313.949 40.2109C313.627 40.2109 313.373 40.333 313.188 40.5771C313.002 40.8213 312.9 41.0654 312.88 41.3096L312.851 41.6758V46.0703C312.851 46.1094 312.851 46.1631 312.851 46.2314C312.861 46.2998 312.885 46.417 312.924 46.583C312.963 46.749 313.017 46.8955 313.085 47.0225C313.154 47.1494 313.261 47.2666 313.407 47.374C313.564 47.4814 313.744 47.5352 313.949 47.5352H314.682C315.004 47.5352 315.258 47.4131 315.444 47.1689C315.629 46.9248 315.732 46.6807 315.751 46.4365L315.78 46.0703V41.6758C315.78 41.6367 315.776 41.583 315.766 41.5146C315.766 41.4463 315.746 41.3291 315.707 41.1631C315.668 40.9971 315.614 40.8506 315.546 40.7236C315.478 40.5967 315.365 40.4795 315.209 40.3721C315.063 40.2646 314.887 40.2109 314.682 40.2109H313.949Z" fill="white"/>
<path d="M232.395 52.7461H235.324C236.057 52.7461 236.726 53.0537 237.331 53.6689C237.946 54.2744 238.254 54.9434 238.254 55.6758V60.0703C238.254 60.8027 237.946 61.4766 237.331 62.0918C236.726 62.6973 236.057 63 235.324 63H232.395C231.662 63 230.988 62.6973 230.373 62.0918C229.768 61.4766 229.465 60.8027 229.465 60.0703V55.6758C229.465 54.9434 229.768 54.2744 230.373 53.6689C230.988 53.0537 231.662 52.7461 232.395 52.7461ZM233.493 54.2109C233.171 54.2109 232.917 54.333 232.731 54.5771C232.546 54.8213 232.443 55.0654 232.424 55.3096L232.395 55.6758V60.0703C232.395 60.1094 232.395 60.1631 232.395 60.2314C232.404 60.2998 232.429 60.417 232.468 60.583C232.507 60.749 232.561 60.8955 232.629 61.0225C232.697 61.1494 232.805 61.2666 232.951 61.374C233.107 61.4814 233.288 61.5352 233.493 61.5352H234.226C234.548 61.5352 234.802 61.4131 234.987 61.1689C235.173 60.9248 235.275 60.6807 235.295 60.4365L235.324 60.0703V55.6758C235.324 55.6367 235.319 55.583 235.31 55.5146C235.31 55.4463 235.29 55.3291 235.251 55.1631C235.212 54.9971 235.158 54.8506 235.09 54.7236C235.021 54.5967 234.909 54.4795 234.753 54.3721C234.606 54.2646 234.431 54.2109 234.226 54.2109H233.493ZM244.621 52.7461H246.818V61.5352H249.748V63H240.959V61.5352H243.888V55.6758H241.691L244.621 52.7461ZM255.382 52.7461H258.312C259.044 52.7461 259.713 53.0537 260.319 53.6689C260.934 54.2744 261.241 54.9434 261.241 55.6758V60.0703C261.241 60.8027 260.934 61.4766 260.319 62.0918C259.713 62.6973 259.044 63 258.312 63H255.382C254.65 63 253.976 62.6973 253.361 62.0918C252.755 61.4766 252.452 60.8027 252.452 60.0703V55.6758C252.452 54.9434 252.755 54.2744 253.361 53.6689C253.976 53.0537 254.65 52.7461 255.382 52.7461ZM256.481 54.2109C256.158 54.2109 255.904 54.333 255.719 54.5771C255.533 54.8213 255.431 55.0654 255.411 55.3096L255.382 55.6758V60.0703C255.382 60.1094 255.382 60.1631 255.382 60.2314C255.392 60.2998 255.416 60.417 255.455 60.583C255.494 60.749 255.548 60.8955 255.616 61.0225C255.685 61.1494 255.792 61.2666 255.939 61.374C256.095 61.4814 256.276 61.5352 256.481 61.5352H257.213C257.535 61.5352 257.789 61.4131 257.975 61.1689C258.16 60.9248 258.263 60.6807 258.282 60.4365L258.312 60.0703V55.6758C258.312 55.6367 258.307 55.583 258.297 55.5146C258.297 55.4463 258.278 55.3291 258.238 55.1631C258.199 54.9971 258.146 54.8506 258.077 54.7236C258.009 54.5967 257.897 54.4795 257.74 54.3721C257.594 54.2646 257.418 54.2109 257.213 54.2109H256.481ZM266.876 52.7461H269.805C270.538 52.7461 271.207 53.0537 271.812 53.6689C272.428 54.2744 272.735 54.9434 272.735 55.6758V60.0703C272.735 60.8027 272.428 61.4766 271.812 62.0918C271.207 62.6973 270.538 63 269.805 63H266.876C266.143 63 265.47 62.6973 264.854 62.0918C264.249 61.4766 263.946 60.8027 263.946 60.0703V55.6758C263.946 54.9434 264.249 54.2744 264.854 53.6689C265.47 53.0537 266.143 52.7461 266.876 52.7461ZM267.974 54.2109C267.652 54.2109 267.398 54.333 267.213 54.5771C267.027 54.8213 266.925 55.0654 266.905 55.3096L266.876 55.6758V60.0703C266.876 60.1094 266.876 60.1631 266.876 60.2314C266.886 60.2998 266.91 60.417 266.949 60.583C266.988 60.749 267.042 60.8955 267.11 61.0225C267.179 61.1494 267.286 61.2666 267.432 61.374C267.589 61.4814 267.769 61.5352 267.974 61.5352H268.707C269.029 61.5352 269.283 61.4131 269.469 61.1689C269.654 60.9248 269.757 60.6807 269.776 60.4365L269.805 60.0703V55.6758C269.805 55.6367 269.801 55.583 269.791 55.5146C269.791 55.4463 269.771 55.3291 269.732 55.1631C269.693 54.9971 269.639 54.8506 269.571 54.7236C269.503 54.5967 269.39 54.4795 269.234 54.3721C269.088 54.2646 268.912 54.2109 268.707 54.2109H267.974ZM278.37 52.7461H281.299C282.032 52.7461 282.701 53.0537 283.306 53.6689C283.921 54.2744 284.229 54.9434 284.229 55.6758V60.0703C284.229 60.8027 283.921 61.4766 283.306 62.0918C282.701 62.6973 282.032 63 281.299 63H278.37C277.637 63 276.963 62.6973 276.348 62.0918C275.743 61.4766 275.44 60.8027 275.44 60.0703V55.6758C275.44 54.9434 275.743 54.2744 276.348 53.6689C276.963 53.0537 277.637 52.7461 278.37 52.7461ZM279.468 54.2109C279.146 54.2109 278.892 54.333 278.706 54.5771C278.521 54.8213 278.418 55.0654 278.399 55.3096L278.37 55.6758V60.0703C278.37 60.1094 278.37 60.1631 278.37 60.2314C278.379 60.2998 278.404 60.417 278.443 60.583C278.482 60.749 278.536 60.8955 278.604 61.0225C278.672 61.1494 278.78 61.2666 278.926 61.374C279.082 61.4814 279.263 61.5352 279.468 61.5352H280.201C280.523 61.5352 280.777 61.4131 280.962 61.1689C281.148 60.9248 281.25 60.6807 281.27 60.4365L281.299 60.0703V55.6758C281.299 55.6367 281.294 55.583 281.285 55.5146C281.285 55.4463 281.265 55.3291 281.226 55.1631C281.187 54.9971 281.133 54.8506 281.065 54.7236C280.996 54.5967 280.884 54.4795 280.728 54.3721C280.581 54.2646 280.406 54.2109 280.201 54.2109H279.468ZM289.863 52.7461H292.793C293.525 52.7461 294.194 53.0537 294.8 53.6689C295.415 54.2744 295.723 54.9434 295.723 55.6758V60.0703C295.723 60.8027 295.415 61.4766 294.8 62.0918C294.194 62.6973 293.525 63 292.793 63H289.863C289.131 63 288.457 62.6973 287.842 62.0918C287.236 61.4766 286.934 60.8027 286.934 60.0703V55.6758C286.934 54.9434 287.236 54.2744 287.842 53.6689C288.457 53.0537 289.131 52.7461 289.863 52.7461ZM290.962 54.2109C290.64 54.2109 290.386 54.333 290.2 54.5771C290.015 54.8213 289.912 55.0654 289.893 55.3096L289.863 55.6758V60.0703C289.863 60.1094 289.863 60.1631 289.863 60.2314C289.873 60.2998 289.897 60.417 289.937 60.583C289.976 60.749 290.029 60.8955 290.098 61.0225C290.166 61.1494 290.273 61.2666 290.42 61.374C290.576 61.4814 290.757 61.5352 290.962 61.5352H291.694C292.017 61.5352 292.271 61.4131 292.456 61.1689C292.642 60.9248 292.744 60.6807 292.764 60.4365L292.793 60.0703V55.6758C292.793 55.6367 292.788 55.583 292.778 55.5146C292.778 55.4463 292.759 55.3291 292.72 55.1631C292.681 54.9971 292.627 54.8506 292.559 54.7236C292.49 54.5967 292.378 54.4795 292.222 54.3721C292.075 54.2646 291.899 54.2109 291.694 54.2109H290.962ZM301.357 52.7461H304.287C305.019 52.7461 305.688 53.0537 306.294 53.6689C306.909 54.2744 307.216 54.9434 307.216 55.6758V60.0703C307.216 60.8027 306.909 61.4766 306.294 62.0918C305.688 62.6973 305.019 63 304.287 63H301.357C300.625 63 299.951 62.6973 299.336 62.0918C298.73 61.4766 298.427 60.8027 298.427 60.0703V55.6758C298.427 54.9434 298.73 54.2744 299.336 53.6689C299.951 53.0537 300.625 52.7461 301.357 52.7461ZM302.456 54.2109C302.133 54.2109 301.879 54.333 301.694 54.5771C301.508 54.8213 301.406 55.0654 301.386 55.3096L301.357 55.6758V60.0703C301.357 60.1094 301.357 60.1631 301.357 60.2314C301.367 60.2998 301.391 60.417 301.43 60.583C301.469 60.749 301.523 60.8955 301.591 61.0225C301.66 61.1494 301.767 61.2666 301.914 61.374C302.07 61.4814 302.251 61.5352 302.456 61.5352H303.188C303.51 61.5352 303.764 61.4131 303.95 61.1689C304.135 60.9248 304.238 60.6807 304.257 60.4365L304.287 60.0703V55.6758C304.287 55.6367 304.282 55.583 304.272 55.5146C304.272 55.4463 304.253 55.3291 304.213 55.1631C304.174 54.9971 304.121 54.8506 304.052 54.7236C303.984 54.5967 303.872 54.4795 303.715 54.3721C303.569 54.2646 303.393 54.2109 303.188 54.2109H302.456ZM313.583 52.7461H315.78V61.5352H318.71V63H309.921V61.5352H312.851V55.6758H310.654L313.583 52.7461Z" fill="white"/>
</g>
<path d="M273.436 10.5C254.032 10.5001 238.371 25.8422 238.371 44.7021C238.371 52.2416 240.877 59.2074 245.104 64.8652L245.891 65.917L244.951 66.8359L222.696 88.583C221.102 90.14 221.102 92.6549 222.696 94.2119C224.311 95.7885 226.949 95.7885 228.563 94.2119L250.818 72.4658L251.717 71.5869L252.739 72.3184C258.537 76.4652 265.686 78.9043 273.436 78.9043C292.839 78.9043 308.5 63.562 308.5 44.7021C308.5 25.8422 292.839 10.5 273.436 10.5ZM273.436 18.4854C276.952 18.4854 280.435 19.1619 283.686 20.4766C286.936 21.7912 289.891 23.7189 292.383 26.1514C294.874 28.584 296.853 31.4741 298.203 34.6572C299.554 37.8406 300.249 41.2543 300.249 44.7021C300.249 48.1499 299.553 51.5628 298.203 54.7461C296.853 57.9294 294.874 60.8202 292.383 63.2529C289.892 65.6854 286.936 67.6131 283.686 68.9277C280.435 70.2424 276.952 70.9189 273.436 70.9189C269.919 70.9189 266.437 70.2423 263.187 68.9277C259.936 67.6131 256.98 65.6856 254.488 63.2529C251.997 60.8202 250.018 57.9294 248.668 54.7461C247.318 51.5628 246.622 48.1498 246.622 44.7021C246.622 41.2543 247.318 37.8406 248.668 34.6572C250.018 31.474 251.997 28.5841 254.488 26.1514C256.98 23.7187 259.936 21.7912 263.187 20.4766C266.437 19.162 269.919 18.4854 273.436 18.4854Z" fill="white" stroke="white" stroke-width="3"/>
</svg>
